<?xml version="1.0" encoding="UTF-8"?>
<svg xmlns="http://www.w3.org/2000/svg" width="2100" height="1180" viewBox="0 0 2100 1180">
  <defs>
    <marker id="arrow" markerWidth="12" markerHeight="12" refX="10" refY="6" orient="auto" markerUnits="strokeWidth">
      <path d="M 0 0 L 12 6 L 0 12 z" fill="#52677f"/>
    </marker>
    <marker id="arrowWarm" markerWidth="12" markerHeight="12" refX="10" refY="6" orient="auto" markerUnits="strokeWidth">
      <path d="M 0 0 L 12 6 L 0 12 z" fill="#bd6b35"/>
    </marker>
    <style>
      .title { font: 700 32px Arial, Helvetica, sans-serif; fill: #1f2937; }
      .sub { font: 400 17px Arial, Helvetica, sans-serif; fill: #667085; }
      .panel { font: 700 20px Arial, Helvetica, sans-serif; fill: #1f2937; }
      .tag { font: 700 15px Arial, Helvetica, sans-serif; fill: #ffffff; }
      .label { font: 700 14px Arial, Helvetica, sans-serif; fill: #1f2937; }
      .mini { font: 400 12px Arial, Helvetica, sans-serif; fill: #667085; }
      .tiny { font: 400 10px Arial, Helvetica, sans-serif; fill: #667085; }
      .math { font: 600 13px Arial, Helvetica, sans-serif; fill: #1f2937; }
      .arrow { stroke: #52677f; stroke-width: 2.1; fill: none; marker-end: url(#arrow); }
      .thin { stroke: #9aa9bb; stroke-width: 1.3; fill: none; }
      .dash { stroke-dasharray: 8 7; }
      .feedback { stroke: #bd6b35; stroke-width: 2; stroke-dasharray: 8 7; fill: none; marker-end: url(#arrowWarm); }
    </style>
  </defs>

<rect x="0" y="0" width="2100" height="1180" rx="0" fill="#fbfcff" stroke="none" stroke-width="0" />
<text class="title" x="62" y="55" text-anchor="start">RailRL: end-to-end framework from railway feeds to explainable route-setting decisions</text>
<text class="sub" x="64" y="84" text-anchor="start">Visual schematic for ESWA / IEEE T-ITS style manuscripts</text>
<rect x="60" y="132" width="360" height="770" rx="18" fill="#e7f0ff" stroke="#afbdd0" stroke-width="1.5" />
<circle cx="88" cy="160" r="17" fill="#2f6fb2" stroke="#2f6fb2" stroke-width="1"/>
<text class="tag" x="88" y="165" text-anchor="middle">1</text>
<text class="panel" x="115" y="166" text-anchor="start">Data acquisition</text>
<rect x="445" y="132" width="360" height="770" rx="18" fill="#e8f6ed" stroke="#afbdd0" stroke-width="1.5" />
<circle cx="473" cy="160" r="17" fill="#2f7d54" stroke="#2f7d54" stroke-width="1"/>
<text class="tag" x="473" y="165" text-anchor="middle">2</text>
<text class="panel" x="500" y="166" text-anchor="start">Canonical data layer</text>
<rect x="830" y="132" width="400" height="770" rx="18" fill="#fff0e5" stroke="#afbdd0" stroke-width="1.5" />
<circle cx="858" cy="160" r="17" fill="#bd6b35" stroke="#bd6b35" stroke-width="1"/>
<text class="tag" x="858" y="165" text-anchor="middle">3</text>
<text class="panel" x="885" y="166" text-anchor="start">MDP construction</text>
<rect x="1255" y="132" width="440" height="770" rx="18" fill="#efeaff" stroke="#afbdd0" stroke-width="1.5" />
<circle cx="1283" cy="160" r="17" fill="#7158b6" stroke="#7158b6" stroke-width="1"/>
<text class="tag" x="1283" y="165" text-anchor="middle">4</text>
<text class="panel" x="1310" y="166" text-anchor="start">Offline RL core</text>
<rect x="1720" y="132" width="405" height="770" rx="18" fill="#e3f7f7" stroke="#afbdd0" stroke-width="1.5" />
<circle cx="1748" cy="160" r="17" fill="#247f86" stroke="#247f86" stroke-width="1"/>
<text class="tag" x="1748" y="165" text-anchor="middle">5</text>
<text class="panel" x="1775" y="166" text-anchor="start">Evaluation &amp; XAI</text>
<rect x="92" y="224" width="74" height="50" rx="8" fill="#ffffff" stroke="#2f6fb2" stroke-width="1.4" />
<path d="M 109 237 H 149 M 109 248 H 144 M 109 259 H 136" stroke="#2f6fb2" stroke-width="2"/>
<text class="tiny" x="129" y="292" text-anchor="middle">TD</text>
<rect x="188" y="224" width="74" height="50" rx="8" fill="#ffffff" stroke="#2f7d54" stroke-width="1.4" />
<path d="M 205 237 H 245 M 205 248 H 240 M 205 259 H 232" stroke="#2f7d54" stroke-width="2"/>
<text class="tiny" x="225" y="292" text-anchor="middle">TM</text>
<rect x="284" y="224" width="74" height="50" rx="8" fill="#ffffff" stroke="#7158b6" stroke-width="1.4" />
<path d="M 301 237 H 341 M 301 248 H 336 M 301 259 H 328" stroke="#7158b6" stroke-width="2"/>
<text class="tiny" x="321" y="292" text-anchor="middle">SCH</text>
<path class="arrow" d="M 240 324 C 240 358, 240 358, 240 380"/>
<rect x="144" y="378" width="190" height="130" rx="12" fill="#ffffff" stroke="#2f6fb2" stroke-width="1.5" />
<rect x="144" y="378" width="190" height="26" rx="12" fill="#b8d4f6" stroke="#2f6fb2" stroke-width="0" />
<text class="label" x="162" y="397" text-anchor="start">collector</text>
<rect x="162" y="414" width="14" height="14" rx="2" fill="#ffffff" stroke="#2f6fb2" stroke-width="1" />
<path d="M 165 421 L 169 426 L 175 416" stroke="#2f6fb2" stroke-width="1.8" fill="none"/>
<text class="mini" x="186" y="426" text-anchor="start">TD</text>
<rect x="228" y="413" width="80" height="10" rx="5" fill="#edf4ff" stroke="none" stroke-width="0" />
<rect x="162" y="438" width="14" height="14" rx="2" fill="#ffffff" stroke="#2f6fb2" stroke-width="1" />
<path d="M 165 445 L 169 450 L 175 440" stroke="#2f6fb2" stroke-width="1.8" fill="none"/>
<text class="mini" x="186" y="450" text-anchor="start">TM</text>
<rect x="228" y="437" width="80" height="10" rx="5" fill="#edf4ff" stroke="none" stroke-width="0" />
<rect x="162" y="462" width="14" height="14" rx="2" fill="#ffffff" stroke="#2f6fb2" stroke-width="1" />
<path d="M 165 469 L 169 474 L 175 464" stroke="#2f6fb2" stroke-width="1.8" fill="none"/>
<text class="mini" x="186" y="474" text-anchor="start">SCH</text>
<rect x="228" y="461" width="80" height="10" rx="5" fill="#edf4ff" stroke="none" stroke-width="0" />
<path d="M 298 473 C 338 448, 338 495, 302 490" stroke="#2f6fb2" stroke-width="1.6" fill="none" marker-end="url(#arrow)"/>
<path class="arrow" d="M 240 508 L 240 562"/>
<ellipse cx="240.0" cy="574" rx="70.0" ry="12" fill="#ffffff" stroke="#2f6fb2" stroke-width="1.5"/>
<path d="M 170 574 V 662 C 170 678, 310 678, 310 662 V 574" fill="#ffffff" stroke="#2f6fb2" stroke-width="1.5"/>
<path d="M 170 604 C 170 620, 310 620, 310 604" fill="none" stroke="#2f6fb2" stroke-width="1.2"/>
<text class="tiny" x="240.0" y="696" text-anchor="middle">raw archive</text>
<path class="thin dash" d="M 342 432 C 390 470, 375 570, 310 604"/>
<text class="tiny" x="333" y="536" text-anchor="middle">resilience</text>
<rect x="118" y="732" width="18" height="48" rx="3" fill="#b8d4f6" stroke="none" stroke-width="0" />
<rect x="148" y="740" width="18" height="40" rx="3" fill="#b8d4f6" stroke="none" stroke-width="0" />
<rect x="178" y="732" width="18" height="32" rx="3" fill="#b8d4f6" stroke="none" stroke-width="0" />
<rect x="208" y="740" width="18" height="48" rx="3" fill="#b8d4f6" stroke="none" stroke-width="0" />
<rect x="238" y="732" width="18" height="40" rx="3" fill="#b8d4f6" stroke="none" stroke-width="0" />
<rect x="268" y="740" width="18" height="32" rx="3" fill="#b8d4f6" stroke="none" stroke-width="0" />
<rect x="298" y="732" width="18" height="48" rx="3" fill="#b8d4f6" stroke="none" stroke-width="0" />
<rect x="328" y="740" width="18" height="40" rx="3" fill="#b8d4f6" stroke="none" stroke-width="0" />
<text class="label" x="240" y="822" text-anchor="middle">continuous collection</text>
<rect x="480" y="222" width="135" height="110" rx="6" fill="#ffffff" stroke="#2f7d54" stroke-width="1.2" />
<rect x="480" y="222" width="135" height="22" rx="6" fill="#2f7d54" stroke="#2f7d54" stroke-width="0" />
<text class="tiny" x="490" y="238" text-anchor="start">events</text>
<path d="M 480 261.6 H 615" stroke="#2f7d54" stroke-width="0.7" opacity="0.55"/>
<path d="M 480 279.2 H 615" stroke="#2f7d54" stroke-width="0.7" opacity="0.55"/>
<path d="M 480 296.8 H 615" stroke="#2f7d54" stroke-width="0.7" opacity="0.55"/>
<path d="M 480 314.4 H 615" stroke="#2f7d54" stroke-width="0.7" opacity="0.55"/>
<path d="M 513.75 244 V 332" stroke="#2f7d54" stroke-width="0.7" opacity="0.55"/>
<path d="M 547.5 244 V 332" stroke="#2f7d54" stroke-width="0.7" opacity="0.55"/>
<path d="M 581.25 244 V 332" stroke="#2f7d54" stroke-width="0.7" opacity="0.55"/>
<rect x="635" y="222" width="135" height="110" rx="6" fill="#ffffff" stroke="#2f6fb2" stroke-width="1.2" />
<rect x="635" y="222" width="135" height="22" rx="6" fill="#2f6fb2" stroke="#2f6fb2" stroke-width="0" />
<text class="tiny" x="645" y="238" text-anchor="start">movements</text>
<path d="M 635 261.6 H 770" stroke="#2f6fb2" stroke-width="0.7" opacity="0.55"/>
<path d="M 635 279.2 H 770" stroke="#2f6fb2" stroke-width="0.7" opacity="0.55"/>
<path d="M 635 296.8 H 770" stroke="#2f6fb2" stroke-width="0.7" opacity="0.55"/>
<path d="M 635 314.4 H 770" stroke="#2f6fb2" stroke-width="0.7" opacity="0.55"/>
<path d="M 668.75 244 V 332" stroke="#2f6fb2" stroke-width="0.7" opacity="0.55"/>
<path d="M 702.5 244 V 332" stroke="#2f6fb2" stroke-width="0.7" opacity="0.55"/>
<path d="M 736.25 244 V 332" stroke="#2f6fb2" stroke-width="0.7" opacity="0.55"/>
<path class="arrow" d="M 615 277 L 635 277"/>
<path d="M 533.0 422.0 L 578.0 398.0" stroke="#2f7d54" stroke-width="2.0" fill="none" opacity="0.8"/>
<path d="M 578.0 398.0 L 628.0 416.0" stroke="#2f7d54" stroke-width="2.0" fill="none" opacity="0.8"/>
<path d="M 628.0 416.0 L 675.0 394.0" stroke="#2f7d54" stroke-width="2.0" fill="none" opacity="0.8"/>
<path d="M 578.0 398.0 L 581.0 454.0" stroke="#2f7d54" stroke-width="2.0" fill="none" opacity="0.8"/>
<path d="M 628.0 416.0 L 641.0 458.0" stroke="#2f7d54" stroke-width="2.0" fill="none" opacity="0.8"/>
<path d="M 641.0 458.0 L 697.0 438.0" stroke="#2f7d54" stroke-width="2.0" fill="none" opacity="0.8"/>
<path d="M 581.0 454.0 L 641.0 458.0" stroke="#2f7d54" stroke-width="2.0" fill="none" opacity="0.8"/>
<path d="M 628.0 416.0 L 697.0 438.0" stroke="#2f7d54" stroke-width="2.0" fill="none" opacity="0.8"/>
<circle cx="533.0" cy="422.0" r="8.0" fill="#b8d4f6" stroke="#2f7d54" stroke-width="1.2"/>
<circle cx="578.0" cy="398.0" r="8.0" fill="#bde5c8" stroke="#2f7d54" stroke-width="1.2"/>
<circle cx="628.0" cy="416.0" r="8.0" fill="#f7dd78" stroke="#2f7d54" stroke-width="1.2"/>
<circle cx="675.0" cy="394.0" r="8.0" fill="#ffd2b5" stroke="#2f7d54" stroke-width="1.2"/>
<circle cx="581.0" cy="454.0" r="8.0" fill="#d5c7ff" stroke="#2f7d54" stroke-width="1.2"/>
<circle cx="641.0" cy="458.0" r="8.0" fill="#b9e6e8" stroke="#2f7d54" stroke-width="1.2"/>
<circle cx="697.0" cy="438.0" r="8.0" fill="#f6b8c6" stroke="#2f7d54" stroke-width="1.2"/>
<text class="label" x="625" y="492" text-anchor="middle">typed infrastructure graph</text>
<ellipse cx="625.0" cy="544" rx="68.0" ry="12" fill="#ffffff" stroke="#2f7d54" stroke-width="1.5"/>
<path d="M 557 544 V 624 C 557 640, 693 640, 693 624 V 544" fill="#ffffff" stroke="#2f7d54" stroke-width="1.5"/>
<path d="M 557 574 C 557 590, 693 590, 693 574" fill="none" stroke="#2f7d54" stroke-width="1.2"/>
<text class="tiny" x="625.0" y="658" text-anchor="middle">canonical store</text>
<path class="arrow" d="M 625 332 C 625 362, 625 362, 625 380"/>
<path class="arrow" d="M 625 506 L 625 532"/>
<rect x="483" y="736" width="58" height="58" rx="12" fill="#ffffff" stroke="#2f7d54" stroke-width="1.2" />
<circle cx="512" cy="758" r="9" fill="#b8d4f6" stroke="#2f7d54" stroke-width="1"/>
<text class="tiny" x="512" y="813" text-anchor="middle">time</text>
<rect x="560" y="736" width="58" height="58" rx="12" fill="#ffffff" stroke="#2f7d54" stroke-width="1.2" />
<circle cx="589" cy="758" r="9" fill="#bde5c8" stroke="#2f7d54" stroke-width="1"/>
<text class="tiny" x="589" y="813" text-anchor="middle">identity</text>
<rect x="637" y="736" width="58" height="58" rx="12" fill="#ffffff" stroke="#2f7d54" stroke-width="1.2" />
<circle cx="666" cy="758" r="9" fill="#f7dd78" stroke="#2f7d54" stroke-width="1"/>
<text class="tiny" x="666" y="813" text-anchor="middle">coverage</text>
<rect x="714" y="736" width="58" height="58" rx="12" fill="#ffffff" stroke="#2f7d54" stroke-width="1.2" />
<circle cx="743" cy="758" r="9" fill="#f6b8c6" stroke="#2f7d54" stroke-width="1"/>
<text class="tiny" x="743" y="813" text-anchor="middle">quality</text>
<text class="label" x="625" y="846" text-anchor="middle">provenance + checks</text>
<rect x="864" y="220" width="330" height="88" rx="12" fill="#ffffff" stroke="#bd6b35" stroke-width="1.3" />
<text class="label" x="892" y="254" text-anchor="start">SET</text>
<text class="label" x="892" y="284" text-anchor="start">WAIT</text>
<path d="M 950 250 H 1152" stroke="#bd6b35" stroke-width="3"/>
<path d="M 950 280 H 1080" stroke="#9aa9bb" stroke-width="3"/>
<circle cx="1154" cy="250" r="7" fill="#ffd2b5" stroke="#bd6b35" stroke-width="1.4"/>
<text class="label" x="1029" y="204" text-anchor="middle">decision triggers</text>
<path class="arrow" d="M 1029 308 L 1029 352"/>
<rect x="939" y="352" width="180" height="92" rx="12" fill="#ffffff" stroke="#bd6b35" stroke-width="1.4" />
<text class="math" x="1029" y="374" text-anchor="middle">A_t</text>
<rect x="955" y="394" width="30" height="28" rx="6" fill="#fff7cf" stroke="#bd6b35" stroke-width="1" />
<text class="tiny" x="970" y="412" text-anchor="middle">wait</text>
<rect x="994" y="394" width="30" height="28" rx="6" fill="#e7f0ff" stroke="#bd6b35" stroke-width="1" />
<text class="tiny" x="1009" y="412" text-anchor="middle">R1</text>
<rect x="1033" y="394" width="30" height="28" rx="6" fill="#e8f6ed" stroke="#bd6b35" stroke-width="1" />
<text class="tiny" x="1048" y="412" text-anchor="middle">R2</text>
<rect x="1072" y="394" width="30" height="28" rx="6" fill="#efeaff" stroke="#bd6b35" stroke-width="1" />
<text class="tiny" x="1087" y="412" text-anchor="middle">R3</text>
<path class="arrow" d="M 1029 444 L 1029 486"/>
<rect x="939" y="486" width="180" height="130" rx="12" fill="#ffffff" stroke="#bd6b35" stroke-width="1.4" />
<path d="M 962.5 537.5 L 996.25 519.5" stroke="#bd6b35" stroke-width="1.5" fill="none" opacity="0.8"/>
<path d="M 996.25 519.5 L 1033.75 533.0" stroke="#bd6b35" stroke-width="1.5" fill="none" opacity="0.8"/>
<path d="M 1033.75 533.0 L 1069.0 516.5" stroke="#bd6b35" stroke-width="1.5" fill="none" opacity="0.8"/>
<path d="M 996.25 519.5 L 998.5 561.5" stroke="#bd6b35" stroke-width="1.5" fill="none" opacity="0.8"/>
<path d="M 1033.75 533.0 L 1043.5 564.5" stroke="#bd6b35" stroke-width="1.5" fill="none" opacity="0.8"/>
<path d="M 1043.5 564.5 L 1085.5 549.5" stroke="#bd6b35" stroke-width="1.5" fill="none" opacity="0.8"/>
<path d="M 998.5 561.5 L 1043.5 564.5" stroke="#bd6b35" stroke-width="1.5" fill="none" opacity="0.8"/>
<path d="M 1033.75 533.0 L 1085.5 549.5" stroke="#bd6b35" stroke-width="1.5" fill="none" opacity="0.8"/>
<circle cx="962.5" cy="537.5" r="6.0" fill="#b8d4f6" stroke="#bd6b35" stroke-width="0.8999999999999999"/>
<circle cx="996.25" cy="519.5" r="6.0" fill="#bde5c8" stroke="#bd6b35" stroke-width="0.8999999999999999"/>
<circle cx="1033.75" cy="533.0" r="6.0" fill="#f7dd78" stroke="#bd6b35" stroke-width="0.8999999999999999"/>
<circle cx="1069.0" cy="516.5" r="6.0" fill="#ffd2b5" stroke="#bd6b35" stroke-width="0.8999999999999999"/>
<circle cx="998.5" cy="561.5" r="6.0" fill="#d5c7ff" stroke="#bd6b35" stroke-width="0.8999999999999999"/>
<circle cx="1043.5" cy="564.5" r="6.0" fill="#b9e6e8" stroke="#bd6b35" stroke-width="0.8999999999999999"/>
<circle cx="1085.5" cy="549.5" r="6.0" fill="#f6b8c6" stroke="#bd6b35" stroke-width="0.8999999999999999"/>
<rect x="957" y="584" width="5" height="18" rx="1" fill="#2f6fb2" stroke="none" stroke-width="0" />
<rect x="965" y="584" width="5" height="16" rx="1" fill="#2f7d54" stroke="none" stroke-width="0" />
<rect x="973" y="584" width="5" height="14" rx="1" fill="#bd6b35" stroke="none" stroke-width="0" />
<rect x="981" y="584" width="5" height="12" rx="1" fill="#7158b6" stroke="none" stroke-width="0" />
<rect x="989" y="584" width="5" height="10" rx="1" fill="#2f6fb2" stroke="none" stroke-width="0" />
<rect x="997" y="584" width="5" height="18" rx="1" fill="#2f7d54" stroke="none" stroke-width="0" />
<rect x="1005" y="584" width="5" height="16" rx="1" fill="#bd6b35" stroke="none" stroke-width="0" />
<rect x="1013" y="584" width="5" height="14" rx="1" fill="#7158b6" stroke="none" stroke-width="0" />
<rect x="1021" y="584" width="5" height="12" rx="1" fill="#2f6fb2" stroke="none" stroke-width="0" />
<rect x="1029" y="584" width="5" height="10" rx="1" fill="#2f7d54" stroke="none" stroke-width="0" />
<rect x="1037" y="584" width="5" height="18" rx="1" fill="#bd6b35" stroke="none" stroke-width="0" />
<rect x="1045" y="584" width="5" height="16" rx="1" fill="#7158b6" stroke="none" stroke-width="0" />
<rect x="1053" y="584" width="5" height="14" rx="1" fill="#2f6fb2" stroke="none" stroke-width="0" />
<rect x="1061" y="584" width="5" height="12" rx="1" fill="#2f7d54" stroke="none" stroke-width="0" />
<rect x="1069" y="584" width="5" height="10" rx="1" fill="#bd6b35" stroke="none" stroke-width="0" />
<rect x="1077" y="584" width="5" height="18" rx="1" fill="#7158b6" stroke="none" stroke-width="0" />
<text class="tiny" x="1029" y="606" text-anchor="middle">state snapshot</text>
<path class="arrow" d="M 1029 616 L 1029 658"/>
<path d="M 900 688 H 1070" stroke="#bd6b35" stroke-width="3"/>
<circle cx="900" cy="688" r="10" fill="#ffffff" stroke="#bd6b35" stroke-width="2"/>
<text class="tiny" x="900" y="718" text-anchor="middle">s</text>
<circle cx="952" cy="688" r="10" fill="#ffffff" stroke="#bd6b35" stroke-width="2"/>
<text class="tiny" x="952" y="718" text-anchor="middle">a</text>
<circle cx="1004" cy="688" r="10" fill="#ffffff" stroke="#bd6b35" stroke-width="2"/>
<text class="tiny" x="1004" y="718" text-anchor="middle">r</text>
<circle cx="1056" cy="688" r="10" fill="#ffffff" stroke="#bd6b35" stroke-width="2"/>
<text class="tiny" x="1056" y="718" text-anchor="middle">s&#x27;</text>
<path class="arrow" d="M 1060 688 L 1090 688"/>
<text class="label" x="1029" y="788" text-anchor="middle">reward + transition</text>
<rect x="900" y="822" width="42" height="24" rx="5" fill="#f6b8c6" stroke="#bd6b35" stroke-width="0.8" />
<rect x="961" y="822" width="42" height="24" rx="5" fill="#bde5c8" stroke="#bd6b35" stroke-width="0.8" />
<rect x="1022" y="822" width="42" height="24" rx="5" fill="#f7dd78" stroke="#bd6b35" stroke-width="0.8" />
<rect x="1083" y="822" width="42" height="24" rx="5" fill="#b8d4f6" stroke="#bd6b35" stroke-width="0.8" />
<text class="tiny" x="1029" y="870" text-anchor="middle">delay | flow | headway | wait</text>
<rect x="1285" y="228" width="245" height="132" rx="14" fill="#ffffff" stroke="#2f7d54" stroke-width="1.3" />
<text class="label" x="1307" y="256" text-anchor="start">HGT graph encoder</text>
<rect x="1285" y="410" width="245" height="132" rx="14" fill="#ffffff" stroke="#2f6fb2" stroke-width="1.3" />
<text class="label" x="1307" y="438" text-anchor="start">Event Transformer</text>
<rect x="1285" y="592" width="245" height="132" rx="14" fill="#ffffff" stroke="#7158b6" stroke-width="1.3" />
<text class="label" x="1307" y="620" text-anchor="start">Context encoder</text>
<path d="M 1335.0 306.6 L 1371.0 287.4" stroke="#2f7d54" stroke-width="1.6" fill="none" opacity="0.8"/>
<path d="M 1371.0 287.4 L 1411.0 301.8" stroke="#2f7d54" stroke-width="1.6" fill="none" opacity="0.8"/>
<path d="M 1411.0 301.8 L 1448.6 284.2" stroke="#2f7d54" stroke-width="1.6" fill="none" opacity="0.8"/>
<path d="M 1371.0 287.4 L 1373.4 332.2" stroke="#2f7d54" stroke-width="1.6" fill="none" opacity="0.8"/>
<path d="M 1411.0 301.8 L 1421.4 335.4" stroke="#2f7d54" stroke-width="1.6" fill="none" opacity="0.8"/>
<path d="M 1421.4 335.4 L 1466.2 319.4" stroke="#2f7d54" stroke-width="1.6" fill="none" opacity="0.8"/>
<path d="M 1373.4 332.2 L 1421.4 335.4" stroke="#2f7d54" stroke-width="1.6" fill="none" opacity="0.8"/>
<path d="M 1411.0 301.8 L 1466.2 319.4" stroke="#2f7d54" stroke-width="1.6" fill="none" opacity="0.8"/>
<circle cx="1335.0" cy="306.6" r="6.4" fill="#b8d4f6" stroke="#2f7d54" stroke-width="0.96"/>
<circle cx="1371.0" cy="287.4" r="6.4" fill="#bde5c8" stroke="#2f7d54" stroke-width="0.96"/>
<circle cx="1411.0" cy="301.8" r="6.4" fill="#f7dd78" stroke="#2f7d54" stroke-width="0.96"/>
<circle cx="1448.6" cy="284.2" r="6.4" fill="#ffd2b5" stroke="#2f7d54" stroke-width="0.96"/>
<circle cx="1373.4" cy="332.2" r="6.4" fill="#d5c7ff" stroke="#2f7d54" stroke-width="0.96"/>
<circle cx="1421.4" cy="335.4" r="6.4" fill="#b9e6e8" stroke="#2f7d54" stroke-width="0.96"/>
<circle cx="1466.2" cy="319.4" r="6.4" fill="#f6b8c6" stroke="#2f7d54" stroke-width="0.96"/>
<rect x="1333" y="468" width="60" height="52" rx="3" fill="#ffffff" stroke="#2f6fb2" stroke-width="1" />
<rect x="1341" y="476" width="8" height="8" rx="0" fill="#f4f7fb" stroke="none" stroke-width="0" />
<rect x="1351" y="476" width="8" height="8" rx="0" fill="#d9e7fb" stroke="none" stroke-width="0" />
<rect x="1361" y="476" width="8" height="8" rx="0" fill="#b8d4f6" stroke="none" stroke-width="0" />
<rect x="1371" y="476" width="8" height="8" rx="0" fill="#8db6e8" stroke="none" stroke-width="0" />
<rect x="1341" y="487" width="8" height="8" rx="0" fill="#d9e7fb" stroke="none" stroke-width="0" />
<rect x="1351" y="487" width="8" height="8" rx="0" fill="#b8d4f6" stroke="none" stroke-width="0" />
<rect x="1361" y="487" width="8" height="8" rx="0" fill="#8db6e8" stroke="none" stroke-width="0" />
<rect x="1371" y="487" width="8" height="8" rx="0" fill="#f4f7fb" stroke="none" stroke-width="0" />
<rect x="1341" y="498" width="8" height="8" rx="0" fill="#b8d4f6" stroke="none" stroke-width="0" />
<rect x="1351" y="498" width="8" height="8" rx="0" fill="#8db6e8" stroke="none" stroke-width="0" />
<rect x="1361" y="498" width="8" height="8" rx="0" fill="#f4f7fb" stroke="none" stroke-width="0" />
<rect x="1371" y="498" width="8" height="8" rx="0" fill="#d9e7fb" stroke="none" stroke-width="0" />
<rect x="1340" y="463" width="60" height="52" rx="3" fill="#ffffff" stroke="#2f6fb2" stroke-width="1" />
<rect x="1348" y="471" width="8" height="8" rx="0" fill="#d9e7fb" stroke="none" stroke-width="0" />
<rect x="1358" y="471" width="8" height="8" rx="0" fill="#b8d4f6" stroke="none" stroke-width="0" />
<rect x="1368" y="471" width="8" height="8" rx="0" fill="#8db6e8" stroke="none" stroke-width="0" />
<rect x="1378" y="471" width="8" height="8" rx="0" fill="#f4f7fb" stroke="none" stroke-width="0" />
<rect x="1348" y="482" width="8" height="8" rx="0" fill="#b8d4f6" stroke="none" stroke-width="0" />
<rect x="1358" y="482" width="8" height="8" rx="0" fill="#8db6e8" stroke="none" stroke-width="0" />
<rect x="1368" y="482" width="8" height="8" rx="0" fill="#f4f7fb" stroke="none" stroke-width="0" />
<rect x="1378" y="482" width="8" height="8" rx="0" fill="#d9e7fb" stroke="none" stroke-width="0" />
<rect x="1348" y="493" width="8" height="8" rx="0" fill="#8db6e8" stroke="none" stroke-width="0" />
<rect x="1358" y="493" width="8" height="8" rx="0" fill="#f4f7fb" stroke="none" stroke-width="0" />
<rect x="1368" y="493" width="8" height="8" rx="0" fill="#d9e7fb" stroke="none" stroke-width="0" />
<rect x="1378" y="493" width="8" height="8" rx="0" fill="#b8d4f6" stroke="none" stroke-width="0" />
<rect x="1347" y="458" width="60" height="52" rx="3" fill="#ffffff" stroke="#2f6fb2" stroke-width="1" />
<rect x="1355" y="466" width="8" height="8" rx="0" fill="#b8d4f6" stroke="none" stroke-width="0" />
<rect x="1365" y="466" width="8" height="8" rx="0" fill="#8db6e8" stroke="none" stroke-width="0" />
<rect x="1375" y="466" width="8" height="8" rx="0" fill="#f4f7fb" stroke="none" stroke-width="0" />
<rect x="1385" y="466" width="8" height="8" rx="0" fill="#d9e7fb" stroke="none" stroke-width="0" />
<rect x="1355" y="477" width="8" height="8" rx="0" fill="#8db6e8" stroke="none" stroke-width="0" />
<rect x="1365" y="477" width="8" height="8" rx="0" fill="#f4f7fb" stroke="none" stroke-width="0" />
<rect x="1375" y="477" width="8" height="8" rx="0" fill="#d9e7fb" stroke="none" stroke-width="0" />
<rect x="1385" y="477" width="8" height="8" rx="0" fill="#b8d4f6" stroke="none" stroke-width="0" />
<rect x="1355" y="488" width="8" height="8" rx="0" fill="#f4f7fb" stroke="none" stroke-width="0" />
<rect x="1365" y="488" width="8" height="8" rx="0" fill="#d9e7fb" stroke="none" stroke-width="0" />
<rect x="1375" y="488" width="8" height="8" rx="0" fill="#b8d4f6" stroke="none" stroke-width="0" />
<rect x="1385" y="488" width="8" height="8" rx="0" fill="#8db6e8" stroke="none" stroke-width="0" />
<rect x="1354" y="453" width="60" height="52" rx="3" fill="#ffffff" stroke="#2f6fb2" stroke-width="1" />
<rect x="1362" y="461" width="8" height="8" rx="0" fill="#8db6e8" stroke="none" stroke-width="0" />
<rect x="1372" y="461" width="8" height="8" rx="0" fill="#f4f7fb" stroke="none" stroke-width="0" />
<rect x="1382" y="461" width="8" height="8" rx="0" fill="#d9e7fb" stroke="none" stroke-width="0" />
<rect x="1392" y="461" width="8" height="8" rx="0" fill="#b8d4f6" stroke="none" stroke-width="0" />
<rect x="1362" y="472" width="8" height="8" rx="0" fill="#f4f7fb" stroke="none" stroke-width="0" />
<rect x="1372" y="472" width="8" height="8" rx="0" fill="#d9e7fb" stroke="none" stroke-width="0" />
<rect x="1382" y="472" width="8" height="8" rx="0" fill="#b8d4f6" stroke="none" stroke-width="0" />
<rect x="1392" y="472" width="8" height="8" rx="0" fill="#8db6e8" stroke="none" stroke-width="0" />
<rect x="1362" y="483" width="8" height="8" rx="0" fill="#d9e7fb" stroke="none" stroke-width="0" />
<rect x="1372" y="483" width="8" height="8" rx="0" fill="#b8d4f6" stroke="none" stroke-width="0" />
<rect x="1382" y="483" width="8" height="8" rx="0" fill="#8db6e8" stroke="none" stroke-width="0" />
<rect x="1392" y="483" width="8" height="8" rx="0" fill="#f4f7fb" stroke="none" stroke-width="0" />
<rect x="1361" y="448" width="60" height="52" rx="3" fill="#ffffff" stroke="#2f6fb2" stroke-width="1" />
<rect x="1369" y="456" width="8" height="8" rx="0" fill="#f4f7fb" stroke="none" stroke-width="0" />
<rect x="1379" y="456" width="8" height="8" rx="0" fill="#d9e7fb" stroke="none" stroke-width="0" />
<rect x="1389" y="456" width="8" height="8" rx="0" fill="#b8d4f6" stroke="none" stroke-width="0" />
<rect x="1399" y="456" width="8" height="8" rx="0" fill="#8db6e8" stroke="none" stroke-width="0" />
<rect x="1369" y="467" width="8" height="8" rx="0" fill="#d9e7fb" stroke="none" stroke-width="0" />
<rect x="1379" y="467" width="8" height="8" rx="0" fill="#b8d4f6" stroke="none" stroke-width="0" />
<rect x="1389" y="467" width="8" height="8" rx="0" fill="#8db6e8" stroke="none" stroke-width="0" />
<rect x="1399" y="467" width="8" height="8" rx="0" fill="#f4f7fb" stroke="none" stroke-width="0" />
<rect x="1369" y="478" width="8" height="8" rx="0" fill="#b8d4f6" stroke="none" stroke-width="0" />
<rect x="1379" y="478" width="8" height="8" rx="0" fill="#8db6e8" stroke="none" stroke-width="0" />
<rect x="1389" y="478" width="8" height="8" rx="0" fill="#f4f7fb" stroke="none" stroke-width="0" />
<rect x="1399" y="478" width="8" height="8" rx="0" fill="#d9e7fb" stroke="none" stroke-width="0" />
<rect x="1415" y="446" width="26" height="92" rx="8" fill="#ffffff" stroke="#2f6fb2" stroke-width="1.4" />
<text class="label" x="1428" y="497" text-anchor="middle">T</text>
<rect x="1453" y="446" width="26" height="92" rx="8" fill="#ffffff" stroke="#2f6fb2" stroke-width="1.4" />
<text class="label" x="1466" y="497" text-anchor="middle">T</text>
<rect x="1491" y="446" width="26" height="92" rx="8" fill="#ffffff" stroke="#2f6fb2" stroke-width="1.4" />
<text class="label" x="1504" y="497" text-anchor="middle">T</text>
<rect x="1529" y="446" width="26" height="92" rx="8" fill="#ffffff" stroke="#2f6fb2" stroke-width="1.4" />
<text class="label" x="1542" y="497" text-anchor="middle">T</text>
<text class="tiny" x="1487" y="558" text-anchor="middle">Transformer</text>
<rect x="1327" y="648" width="22" height="46" rx="4" fill="#d5c7ff" stroke="#7158b6" stroke-width="0.8" />
<rect x="1359" y="648" width="22" height="46" rx="4" fill="#f7dd78" stroke="#7158b6" stroke-width="0.8" />
<rect x="1391" y="648" width="22" height="46" rx="4" fill="#b9e6e8" stroke="#7158b6" stroke-width="0.8" />
<rect x="1423" y="648" width="22" height="46" rx="4" fill="#d5c7ff" stroke="#7158b6" stroke-width="0.8" />
<rect x="1455" y="648" width="22" height="46" rx="4" fill="#f7dd78" stroke="#7158b6" stroke-width="0.8" />
<text class="tiny" x="1409" y="708" text-anchor="middle">schedule + flags</text>
<rect x="1571" y="426" width="92" height="142" rx="18" fill="#fff7cf" stroke="#9b7a13" stroke-width="1.5" />
<text class="label" x="1617" y="465" text-anchor="middle">gated</text>
<text class="label" x="1617" y="485" text-anchor="middle">fusion</text>
<circle cx="1617" cy="524" r="21" fill="#ffffff" stroke="#9b7a13" stroke-width="1.4"/>
<text class="panel" x="1617" y="530" text-anchor="middle">+</text>
<path class="arrow" d="M 1530 294 C 1553 294, 1555 497, 1571 497"/>
<path class="arrow" d="M 1530 476 C 1553 476, 1555 497, 1571 497"/>
<path class="arrow" d="M 1530 658 C 1553 658, 1555 497, 1571 497"/>
<path class="arrow" d="M 1663 497 L 1710 497"/>
<rect x="1710" y="377" width="150" height="250" rx="16" fill="#ffffff" stroke="#7158b6" stroke-width="1.4" />
<text class="label" x="1785" y="407" text-anchor="middle">CQL policy</text>
<path d="M 1717 517 H 1862" stroke="#9aa9bb" stroke-width="1.2"/>
<rect x="1731" y="472" width="18" height="45" rx="2" fill="#7158b6" stroke="none" stroke-width="0" />
<text class="tiny" x="1740" y="533" text-anchor="middle">W</text>
<rect x="1762" y="442" width="18" height="75" rx="2" fill="#7158b6" stroke="none" stroke-width="0" />
<text class="tiny" x="1771" y="533" text-anchor="middle">R1</text>
<rect x="1793" y="459" width="18" height="58" rx="2" fill="#7158b6" stroke="none" stroke-width="0" />
<text class="tiny" x="1802" y="533" text-anchor="middle">R2</text>
<rect x="1824" y="485" width="18" height="32" rx="2" fill="#7158b6" stroke="none" stroke-width="0" />
<text class="tiny" x="1833" y="533" text-anchor="middle">R3</text>
<text class="tiny" x="1789" y="452" text-anchor="middle">Q scores</text>
<rect x="1733" y="557" width="104" height="22" rx="6" fill="#e8f6ed" stroke="#2f7d54" stroke-width="1" />
<text class="tiny" x="1785" y="573" text-anchor="middle">route head</text>
<rect x="1733" y="589" width="104" height="22" rx="6" fill="#e7f0ff" stroke="#2f6fb2" stroke-width="1" />
<text class="tiny" x="1785" y="605" text-anchor="middle">time head</text>
<path class="feedback" d="M 1785 627 C 1785 742, 1500 742, 1500 668"/>
<text class="tiny" x="1620" y="760" text-anchor="middle">loss feedback</text>
<rect x="1754" y="224" width="185" height="128" rx="12" fill="#ffffff" stroke="#247f86" stroke-width="1.4" />
<text class="label" x="1774" y="248" text-anchor="start">metrics</text>
<rect x="1774" y="264" width="60" height="12" rx="6" fill="#b9e6e8" stroke="none" stroke-width="0" />
<rect x="1774" y="288" width="86" height="12" rx="6" fill="#bde5c8" stroke="none" stroke-width="0" />
<rect x="1774" y="312" width="112" height="12" rx="6" fill="#f7dd78" stroke="none" stroke-width="0" />
<rect x="1866" y="263" width="12" height="12" rx="2" fill="#b8d4f6" stroke="#ffffff" stroke-width="0.4" />
<rect x="1884" y="263" width="12" height="12" rx="2" fill="#d5c7ff" stroke="#ffffff" stroke-width="0.4" />
<rect x="1902" y="263" width="12" height="12" rx="2" fill="#f6b8c6" stroke="#ffffff" stroke-width="0.4" />
<rect x="1866" y="287" width="12" height="12" rx="2" fill="#d5c7ff" stroke="#ffffff" stroke-width="0.4" />
<rect x="1884" y="287" width="12" height="12" rx="2" fill="#f6b8c6" stroke="#ffffff" stroke-width="0.4" />
<rect x="1902" y="287" width="12" height="12" rx="2" fill="#bde5c8" stroke="#ffffff" stroke-width="0.4" />
<text class="tiny" x="1846" y="336" text-anchor="middle">overall + strata</text>
<rect x="1982" y="232" width="96" height="78" rx="6" fill="#ffffff" stroke="#7158b6" stroke-width="1.1" />
<rect x="1984.0" y="234.0" width="12.0" height="11.6" rx="1" fill="#f4efff" stroke="none" stroke-width="0" />
<rect x="2000.0" y="234.0" width="12.0" height="11.6" rx="1" fill="#ddd1ff" stroke="none" stroke-width="0" />
<rect x="2016.0" y="234.0" width="12.0" height="11.6" rx="1" fill="#bba7f1" stroke="none" stroke-width="0" />
<rect x="2032.0" y="234.0" width="12.0" height="11.6" rx="1" fill="#9274de" stroke="none" stroke-width="0" />
<rect x="2048.0" y="234.0" width="12.0" height="11.6" rx="1" fill="#7055b8" stroke="none" stroke-width="0" />
<rect x="2064.0" y="234.0" width="12.0" height="11.6" rx="1" fill="#f4efff" stroke="none" stroke-width="0" />
<rect x="1984.0" y="249.6" width="12.0" height="11.6" rx="1" fill="#bba7f1" stroke="none" stroke-width="0" />
<rect x="2000.0" y="249.6" width="12.0" height="11.6" rx="1" fill="#9274de" stroke="none" stroke-width="0" />
<rect x="2016.0" y="249.6" width="12.0" height="11.6" rx="1" fill="#7055b8" stroke="none" stroke-width="0" />
<rect x="2032.0" y="249.6" width="12.0" height="11.6" rx="1" fill="#f4efff" stroke="none" stroke-width="0" />
<rect x="2048.0" y="249.6" width="12.0" height="11.6" rx="1" fill="#ddd1ff" stroke="none" stroke-width="0" />
<rect x="2064.0" y="249.6" width="12.0" height="11.6" rx="1" fill="#bba7f1" stroke="none" stroke-width="0" />
<rect x="1984.0" y="265.2" width="12.0" height="11.6" rx="1" fill="#7055b8" stroke="none" stroke-width="0" />
<rect x="2000.0" y="265.2" width="12.0" height="11.6" rx="1" fill="#f4efff" stroke="none" stroke-width="0" />
<rect x="2016.0" y="265.2" width="12.0" height="11.6" rx="1" fill="#ddd1ff" stroke="none" stroke-width="0" />
<rect x="2032.0" y="265.2" width="12.0" height="11.6" rx="1" fill="#bba7f1" stroke="none" stroke-width="0" />
<rect x="2048.0" y="265.2" width="12.0" height="11.6" rx="1" fill="#9274de" stroke="none" stroke-width="0" />
<rect x="2064.0" y="265.2" width="12.0" height="11.6" rx="1" fill="#7055b8" stroke="none" stroke-width="0" />
<rect x="1984.0" y="280.8" width="12.0" height="11.6" rx="1" fill="#ddd1ff" stroke="none" stroke-width="0" />
<rect x="2000.0" y="280.8" width="12.0" height="11.6" rx="1" fill="#bba7f1" stroke="none" stroke-width="0" />
<rect x="2016.0" y="280.8" width="12.0" height="11.6" rx="1" fill="#9274de" stroke="none" stroke-width="0" />
<rect x="2032.0" y="280.8" width="12.0" height="11.6" rx="1" fill="#7055b8" stroke="none" stroke-width="0" />
<rect x="2048.0" y="280.8" width="12.0" height="11.6" rx="1" fill="#f4efff" stroke="none" stroke-width="0" />
<rect x="2064.0" y="280.8" width="12.0" height="11.6" rx="1" fill="#ddd1ff" stroke="none" stroke-width="0" />
<rect x="1984.0" y="296.4" width="12.0" height="11.6" rx="1" fill="#9274de" stroke="none" stroke-width="0" />
<rect x="2000.0" y="296.4" width="12.0" height="11.6" rx="1" fill="#7055b8" stroke="none" stroke-width="0" />
<rect x="2016.0" y="296.4" width="12.0" height="11.6" rx="1" fill="#f4efff" stroke="none" stroke-width="0" />
<rect x="2032.0" y="296.4" width="12.0" height="11.6" rx="1" fill="#ddd1ff" stroke="none" stroke-width="0" />
<rect x="2048.0" y="296.4" width="12.0" height="11.6" rx="1" fill="#bba7f1" stroke="none" stroke-width="0" />
<rect x="2064.0" y="296.4" width="12.0" height="11.6" rx="1" fill="#9274de" stroke="none" stroke-width="0" />
<text class="tiny" x="2030" y="328" text-anchor="middle">attention / attribution</text>
<path class="arrow" d="M 1940 288 L 1982 288"/>
<rect x="1762" y="402" width="136" height="116" rx="12" fill="#ffffff" stroke="#247f86" stroke-width="1.3" />
<rect x="1782" y="432" width="24" height="16" rx="3" fill="#b9e6e8" stroke="none" stroke-width="0" />
<rect x="1816" y="432" width="24" height="16" rx="3" fill="#bde5c8" stroke="none" stroke-width="0" />
<rect x="1850" y="432" width="24" height="16" rx="3" fill="#f7dd78" stroke="none" stroke-width="0" />
<rect x="1782" y="457" width="24" height="16" rx="3" fill="#bde5c8" stroke="none" stroke-width="0" />
<rect x="1816" y="457" width="24" height="16" rx="3" fill="#f7dd78" stroke="none" stroke-width="0" />
<rect x="1850" y="457" width="24" height="16" rx="3" fill="#f6b8c6" stroke="none" stroke-width="0" />
<rect x="1782" y="482" width="24" height="16" rx="3" fill="#f7dd78" stroke="none" stroke-width="0" />
<rect x="1816" y="482" width="24" height="16" rx="3" fill="#f6b8c6" stroke="none" stroke-width="0" />
<rect x="1850" y="482" width="24" height="16" rx="3" fill="#b9e6e8" stroke="none" stroke-width="0" />
<text class="label" x="1830" y="542" text-anchor="middle">strata</text>
<rect x="1940" y="402" width="140" height="116" rx="12" fill="#ffffff" stroke="#247f86" stroke-width="1.3" />
<path d="M 1965 474 C 1990 440, 2036 444, 2057 424" stroke="#247f86" stroke-width="2.2" fill="none"/>
<path d="M 1965 494 C 1998 480, 2030 506, 2060 468" stroke="#bd6b35" stroke-width="2.2" fill="none"/>
<text class="label" x="2010" y="542" text-anchor="middle">counterfactual</text>
<rect x="1778" y="617" width="298" height="132" rx="14" fill="#ffffff" stroke="#247f86" stroke-width="1.3" />
<text class="label" x="1927" y="647" text-anchor="middle">decision-support evidence</text>
<path d="M 1800 748 H 1945" stroke="#9aa9bb" stroke-width="1.2"/>
<rect x="1814" y="703" width="18" height="45" rx="2" fill="#247f86" stroke="none" stroke-width="0" />
<text class="tiny" x="1823" y="764" text-anchor="middle">W</text>
<rect x="1845" y="673" width="18" height="75" rx="2" fill="#247f86" stroke="none" stroke-width="0" />
<text class="tiny" x="1854" y="764" text-anchor="middle">R1</text>
<rect x="1876" y="690" width="18" height="58" rx="2" fill="#247f86" stroke="none" stroke-width="0" />
<text class="tiny" x="1885" y="764" text-anchor="middle">R2</text>
<rect x="1907" y="716" width="18" height="32" rx="2" fill="#247f86" stroke="none" stroke-width="0" />
<text class="tiny" x="1916" y="764" text-anchor="middle">R3</text>
<text class="tiny" x="1872" y="683" text-anchor="middle">Q scores</text>
<rect x="1955" y="667" width="82" height="64" rx="6" fill="#ffffff" stroke="#247f86" stroke-width="1.1" />
<rect x="1957.0" y="669.0" width="9.666666666666666" height="8.8" rx="1" fill="#f4efff" stroke="none" stroke-width="0" />
<rect x="1970.6666666666667" y="669.0" width="9.666666666666666" height="8.8" rx="1" fill="#ddd1ff" stroke="none" stroke-width="0" />
<rect x="1984.3333333333333" y="669.0" width="9.666666666666666" height="8.8" rx="1" fill="#bba7f1" stroke="none" stroke-width="0" />
<rect x="1998.0" y="669.0" width="9.666666666666666" height="8.8" rx="1" fill="#9274de" stroke="none" stroke-width="0" />
<rect x="2011.6666666666667" y="669.0" width="9.666666666666666" height="8.8" rx="1" fill="#7055b8" stroke="none" stroke-width="0" />
<rect x="2025.3333333333333" y="669.0" width="9.666666666666666" height="8.8" rx="1" fill="#f4efff" stroke="none" stroke-width="0" />
<rect x="1957.0" y="681.8" width="9.666666666666666" height="8.8" rx="1" fill="#bba7f1" stroke="none" stroke-width="0" />
<rect x="1970.6666666666667" y="681.8" width="9.666666666666666" height="8.8" rx="1" fill="#9274de" stroke="none" stroke-width="0" />
<rect x="1984.3333333333333" y="681.8" width="9.666666666666666" height="8.8" rx="1" fill="#7055b8" stroke="none" stroke-width="0" />
<rect x="1998.0" y="681.8" width="9.666666666666666" height="8.8" rx="1" fill="#f4efff" stroke="none" stroke-width="0" />
<rect x="2011.6666666666667" y="681.8" width="9.666666666666666" height="8.8" rx="1" fill="#ddd1ff" stroke="none" stroke-width="0" />
<rect x="2025.3333333333333" y="681.8" width="9.666666666666666" height="8.8" rx="1" fill="#bba7f1" stroke="none" stroke-width="0" />
<rect x="1957.0" y="694.6" width="9.666666666666666" height="8.8" rx="1" fill="#7055b8" stroke="none" stroke-width="0" />
<rect x="1970.6666666666667" y="694.6" width="9.666666666666666" height="8.8" rx="1" fill="#f4efff" stroke="none" stroke-width="0" />
<rect x="1984.3333333333333" y="694.6" width="9.666666666666666" height="8.8" rx="1" fill="#ddd1ff" stroke="none" stroke-width="0" />
<rect x="1998.0" y="694.6" width="9.666666666666666" height="8.8" rx="1" fill="#bba7f1" stroke="none" stroke-width="0" />
<rect x="2011.6666666666667" y="694.6" width="9.666666666666666" height="8.8" rx="1" fill="#9274de" stroke="none" stroke-width="0" />
<rect x="2025.3333333333333" y="694.6" width="9.666666666666666" height="8.8" rx="1" fill="#7055b8" stroke="none" stroke-width="0" />
<rect x="1957.0" y="707.4" width="9.666666666666666" height="8.8" rx="1" fill="#ddd1ff" stroke="none" stroke-width="0" />
<rect x="1970.6666666666667" y="707.4" width="9.666666666666666" height="8.8" rx="1" fill="#bba7f1" stroke="none" stroke-width="0" />
<rect x="1984.3333333333333" y="707.4" width="9.666666666666666" height="8.8" rx="1" fill="#9274de" stroke="none" stroke-width="0" />
<rect x="1998.0" y="707.4" width="9.666666666666666" height="8.8" rx="1" fill="#7055b8" stroke="none" stroke-width="0" />
<rect x="2011.6666666666667" y="707.4" width="9.666666666666666" height="8.8" rx="1" fill="#f4efff" stroke="none" stroke-width="0" />
<rect x="2025.3333333333333" y="707.4" width="9.666666666666666" height="8.8" rx="1" fill="#ddd1ff" stroke="none" stroke-width="0" />
<rect x="1957.0" y="720.2" width="9.666666666666666" height="8.8" rx="1" fill="#9274de" stroke="none" stroke-width="0" />
<rect x="1970.6666666666667" y="720.2" width="9.666666666666666" height="8.8" rx="1" fill="#7055b8" stroke="none" stroke-width="0" />
<rect x="1984.3333333333333" y="720.2" width="9.666666666666666" height="8.8" rx="1" fill="#f4efff" stroke="none" stroke-width="0" />
<rect x="1998.0" y="720.2" width="9.666666666666666" height="8.8" rx="1" fill="#ddd1ff" stroke="none" stroke-width="0" />
<rect x="2011.6666666666667" y="720.2" width="9.666666666666666" height="8.8" rx="1" fill="#bba7f1" stroke="none" stroke-width="0" />
<rect x="2025.3333333333333" y="720.2" width="9.666666666666666" height="8.8" rx="1" fill="#9274de" stroke="none" stroke-width="0" />
<rect x="1790" y="792" width="274" height="42" rx="10" fill="#fff7cf" stroke="#9b7a13" stroke-width="1.2" />
<text class="label" x="1927" y="819" text-anchor="middle">ESWA / T-ITS evaluation package</text>
<path class="arrow" d="M 424 517 C 437 517, 428 517, 441 517"/>
<path class="arrow" d="M 809 517 C 822 517, 813 517, 826 517"/>
<path class="arrow" d="M 1234 517 C 1247 517, 1238 517, 1251 517"/>
<path class="arrow" d="M 1699 517 C 1712 517, 1703 517, 1716 517"/>
<rect x="60" y="940" width="1980" height="165" rx="20" fill="#f7e6d7" stroke="#e0b896" stroke-width="1.3" />
<text class="panel" x="90" y="976" text-anchor="start">Cross-cutting controls</text>
<rect x="120" y="1002" width="250" height="74" rx="14" fill="#fffaf5" stroke="#d3a783" stroke-width="1.1" />
<circle cx="158" cy="1039" r="20" fill="#ffffff" stroke="#2f6fb2" stroke-width="2"/>
<path d="M 147 1039 H 169 M 158 1028 V 1050" stroke="#2f6fb2" stroke-width="2"/>
<text class="label" x="200" y="1034" text-anchor="start">trace</text>
<text class="tiny" x="200" y="1056" text-anchor="start">sample lineage</text>
<rect x="500" y="1002" width="250" height="74" rx="14" fill="#fffaf5" stroke="#d3a783" stroke-width="1.1" />
<circle cx="538" cy="1039" r="20" fill="#ffffff" stroke="#2f7d54" stroke-width="2"/>
<path d="M 526 1043 C 536 1025, 550 1030, 551 1043" stroke="#2f7d54" stroke-width="2" fill="none"/>
<text class="label" x="580" y="1034" text-anchor="start">causal time</text>
<text class="tiny" x="580" y="1056" text-anchor="start">no future state</text>
<rect x="880" y="1002" width="250" height="74" rx="14" fill="#fffaf5" stroke="#d3a783" stroke-width="1.1" />
<circle cx="918" cy="1039" r="20" fill="#ffffff" stroke="#a84d63" stroke-width="2"/>
<path d="M 908 1039 L 916 1047 L 930 1029" stroke="#a84d63" stroke-width="2.6" fill="none"/>
<text class="label" x="960" y="1034" text-anchor="start">leak audit</text>
<text class="tiny" x="960" y="1056" text-anchor="start">no answer leakage</text>
<rect x="1260" y="1002" width="250" height="74" rx="14" fill="#fffaf5" stroke="#d3a783" stroke-width="1.1" />
<circle cx="1298" cy="1039" r="20" fill="#ffffff" stroke="#7158b6" stroke-width="2"/>
<circle cx="1291" cy="1039" r="4" fill="#7158b6" stroke="#7158b6" stroke-width="1"/>
<circle cx="1299" cy="1039" r="4" fill="#7158b6" stroke="#7158b6" stroke-width="1"/>
<circle cx="1307" cy="1039" r="4" fill="#7158b6" stroke="#7158b6" stroke-width="1"/>
<text class="label" x="1340" y="1034" text-anchor="start">3 seeds</text>
<text class="tiny" x="1340" y="1056" text-anchor="start">robustness</text>
<rect x="1640" y="1002" width="250" height="74" rx="14" fill="#fffaf5" stroke="#d3a783" stroke-width="1.1" />
<circle cx="1678" cy="1039" r="20" fill="#ffffff" stroke="#bd6b35" stroke-width="2"/>
<path d="M 1668 1036 H 1688 V 1050 H 1668 Z M 1673 1036 V 1030 C 1673 1020, 1683 1020, 1683 1030 V 1036" stroke="#bd6b35" stroke-width="2" fill="none"/>
<text class="label" x="1720" y="1034" text-anchor="start">confidential</text>
<text class="tiny" x="1720" y="1056" text-anchor="start">public-safe view</text>
<text class="mini" x="70" y="1145" text-anchor="start">Scale: 14 months | 11.8M TD records | 247k movements | about 2.0M decisions | 1.996M usable MDP snapshots</text>
<text class="mini" x="2030" y="1145" text-anchor="end">Editable SVG: all panels are shapes and text</text>
</svg>
