<?xml version="1.0" encoding="utf-8" standalone="no"?>
<!DOCTYPE svg PUBLIC "-//W3C//DTD SVG 1.1//EN"
  "http://www.w3.org/Graphics/SVG/1.1/DTD/svg11.dtd">
<svg xmlns:xlink="http://www.w3.org/1999/xlink" width="533.140157pt" height="377.234646pt" viewBox="0 0 533.140157 377.234646" xmlns="http://www.w3.org/2000/svg" version="1.1">
 <metadata>
  <rdf:RDF xmlns:dc="http://purl.org/dc/elements/1.1/" xmlns:cc="http://creativecommons.org/ns#" xmlns:rdf="http://www.w3.org/1999/02/22-rdf-syntax-ns#">
   <cc:Work>
    <dc:type rdf:resource="http://purl.org/dc/dcmitype/StillImage"/>
    <dc:date>2026-05-24T22:14:26.563454</dc:date>
    <dc:format>image/svg+xml</dc:format>
    <dc:creator>
     <cc:Agent>
      <dc:title>Matplotlib v3.10.8, https://matplotlib.org/</dc:title>
     </cc:Agent>
    </dc:creator>
   </cc:Work>
  </rdf:RDF>
 </metadata>
 <defs>
  <style type="text/css">*{stroke-linejoin: round; stroke-linecap: butt}</style>
 </defs>
 <g id="figure_1">
  <g id="patch_1">
   <path d="M 0 377.234646 
L 533.140157 377.234646 
L 533.140157 -0 
L 0 -0 
z
" style="fill: #ffffff"/>
  </g>
  <g id="axes_1">
   <g id="patch_2">
    <path d="M 426.342047 34.775433 
L 456.947717 34.775433 
Q 465.247559 34.775433 465.247559 28.970079 
L 465.247559 22.80189 
Q 465.247559 16.996535 456.947717 16.996535 
L 426.342047 16.996535 
Q 418.042205 16.996535 418.042205 22.80189 
L 418.042205 28.970079 
Q 418.042205 34.775433 426.342047 34.775433 
z
" clip-path="url(#pf179150279)" style="fill: #e9dff7"/>
   </g>
   <g id="patch_3">
    <path d="M 469.91622 34.775433 
L 500.52189 34.775433 
Q 508.821732 34.775433 508.821732 28.970079 
L 508.821732 22.80189 
Q 508.821732 16.996535 500.52189 16.996535 
L 469.91622 16.996535 
Q 461.616378 16.996535 461.616378 22.80189 
L 461.616378 28.970079 
Q 461.616378 34.775433 469.91622 34.775433 
z
" clip-path="url(#pf179150279)" style="fill: #f9e5e4"/>
   </g>
   <g id="patch_4">
    <path d="M 31.580787 224.175118 
L 128.066457 224.175118 
Q 138.44126 224.175118 138.44126 216.918425 
L 138.44126 76.864252 
Q 138.44126 69.607559 128.066457 69.607559 
L 31.580787 69.607559 
Q 21.205984 69.607559 21.205984 76.864252 
L 21.205984 216.918425 
Q 21.205984 224.175118 31.580787 224.175118 
z
" clip-path="url(#pf179150279)" style="fill: #d9e9fc; stroke: #cbd5e1; stroke-width: 0.9; stroke-linejoin: miter"/>
   </g>
   <g id="patch_5">
    <path d="M 156.078425 224.175118 
L 252.564094 224.175118 
Q 262.938898 224.175118 262.938898 216.918425 
L 262.938898 76.864252 
Q 262.938898 69.607559 252.564094 69.607559 
L 156.078425 69.607559 
Q 145.703622 69.607559 145.703622 76.864252 
L 145.703622 216.918425 
Q 145.703622 224.175118 156.078425 224.175118 
z
" clip-path="url(#pf179150279)" style="fill: #e1efd9; stroke: #cbd5e1; stroke-width: 0.9; stroke-linejoin: miter"/>
   </g>
   <g id="patch_6">
    <path d="M 280.576063 224.175118 
L 377.061732 224.175118 
Q 387.436535 224.175118 387.436535 216.918425 
L 387.436535 76.864252 
Q 387.436535 69.607559 377.061732 69.607559 
L 280.576063 69.607559 
Q 270.20126 69.607559 270.20126 76.864252 
L 270.20126 216.918425 
Q 270.20126 224.175118 280.576063 224.175118 
z
" clip-path="url(#pf179150279)" style="fill: #e9dff7; stroke: #cbd5e1; stroke-width: 0.9; stroke-linejoin: miter"/>
   </g>
   <g id="patch_7">
    <path d="M 405.073701 224.175118 
L 501.55937 224.175118 
Q 511.934173 224.175118 511.934173 216.918425 
L 511.934173 76.864252 
Q 511.934173 69.607559 501.55937 69.607559 
L 405.073701 69.607559 
Q 394.698898 69.607559 394.698898 76.864252 
L 394.698898 216.918425 
Q 394.698898 224.175118 405.073701 224.175118 
z
" clip-path="url(#pf179150279)" style="fill: #f9e5e4; stroke: #cbd5e1; stroke-width: 0.9; stroke-linejoin: miter"/>
   </g>
   <g id="patch_8">
    <path d="M 36.768189 138.908976 
L 73.59874 138.908976 
Q 78.786142 138.908976 78.786142 135.28063 
L 78.786142 98.634331 
Q 78.786142 95.005984 73.59874 95.005984 
L 36.768189 95.005984 
Q 31.580787 95.005984 31.580787 98.634331 
L 31.580787 135.28063 
Q 31.580787 138.908976 36.768189 138.908976 
z
" clip-path="url(#pf179150279)" style="fill: #ffffff; stroke: #b8c6d8; stroke-width: 0.9; stroke-linejoin: miter"/>
   </g>
   <g id="patch_9">
    <path d="M 48.699213 109.700787 
C 49.318284 109.700787 49.912084 109.52875 50.349834 109.222564 
C 50.787583 108.916379 51.033543 108.501043 51.033543 108.068031 
C 51.033543 107.63502 50.787583 107.219684 50.349834 106.913499 
C 49.912084 106.607313 49.318284 106.435276 48.699213 106.435276 
C 48.080141 106.435276 47.486341 106.607313 47.048592 106.913499 
C 46.610842 107.219684 46.364882 107.63502 46.364882 108.068031 
C 46.364882 108.501043 46.610842 108.916379 47.048592 109.222564 
C 47.486341 109.52875 48.080141 109.700787 48.699213 109.700787 
z
" clip-path="url(#pf179150279)" style="fill: #0f4d92"/>
   </g>
   <g id="patch_10">
    <path d="M 61.667717 118.771654 
C 62.286788 118.771654 62.880588 118.599616 63.318338 118.29343 
C 63.756087 117.987245 64.002047 117.57191 64.002047 117.138898 
C 64.002047 116.705886 63.756087 116.290551 63.318338 115.984365 
C 62.880588 115.678179 62.286788 115.506142 61.667717 115.506142 
C 61.048645 115.506142 60.454845 115.678179 60.017095 115.984365 
C 59.579346 116.290551 59.333386 116.705886 59.333386 117.138898 
C 59.333386 117.57191 59.579346 117.987245 60.017095 118.29343 
C 60.454845 118.599616 61.048645 118.771654 61.667717 118.771654 
z
" clip-path="url(#pf179150279)" style="fill: #227c70"/>
   </g>
   <g id="patch_11">
    <path d="M 74.63622 127.84252 
C 75.255292 127.84252 75.849092 127.670482 76.286842 127.364297 
C 76.724591 127.058111 76.970551 126.642776 76.970551 126.209764 
C 76.970551 125.776752 76.724591 125.361417 76.286842 125.055231 
C 75.849092 124.749045 75.255292 124.577008 74.63622 124.577008 
C 74.017149 124.577008 73.423349 124.749045 72.985599 125.055231 
C 72.54785 125.361417 72.30189 125.776752 72.30189 126.209764 
C 72.30189 126.642776 72.54785 127.058111 72.985599 127.364297 
C 73.423349 127.670482 74.017149 127.84252 74.63622 127.84252 
z
" clip-path="url(#pf179150279)" style="fill: #b7791f"/>
   </g>
   <g id="patch_12">
    <path d="M 87.604724 136.913386 
C 88.223796 136.913386 88.817596 136.741348 89.255345 136.435163 
C 89.693095 136.128977 89.939055 135.713642 89.939055 135.28063 
C 89.939055 134.847618 89.693095 134.432283 89.255345 134.126097 
C 88.817596 133.819911 88.223796 133.647874 87.604724 133.647874 
C 86.985653 133.647874 86.391853 133.819911 85.954103 134.126097 
C 85.516354 134.432283 85.270394 134.847618 85.270394 135.28063 
C 85.270394 135.713642 85.516354 136.128977 85.954103 136.435163 
C 86.391853 136.741348 86.985653 136.913386 87.604724 136.913386 
z
" clip-path="url(#pf179150279)" style="fill: #6656a4"/>
   </g>
   <g id="patch_13">
    <path d="M 56.480315 142.136531 
Q 56.480315 149.976966 56.480315 156.587563 
" clip-path="url(#pf179150279)" style="fill: none; stroke: #0f4d92; stroke-width: 1.1; stroke-linecap: round"/>
    <path d="M 58.280315 152.987563 
L 56.480315 156.587563 
L 54.680315 152.987563 
z
" clip-path="url(#pf179150279)" style="fill: #0f4d92; stroke: #0f4d92; stroke-width: 1.1; stroke-linecap: round"/>
   </g>
   <g id="patch_14">
    <path d="M 39.88063 193.334173 
L 78.786142 193.334173 
Q 82.936063 193.334173 82.936063 190.431496 
L 82.936063 166.847244 
Q 82.936063 163.944567 78.786142 163.944567 
L 39.88063 163.944567 
Q 35.730709 163.944567 35.730709 166.847244 
L 35.730709 190.431496 
Q 35.730709 193.334173 39.88063 193.334173 
z
" clip-path="url(#pf179150279)" style="fill: #ffffff; stroke: #0f4d92; stroke-width: 0.8; stroke-linejoin: miter"/>
   </g>
   <g id="patch_15">
    <path d="M 46.105512 189.705827 
L 85.011024 189.705827 
Q 89.160945 189.705827 89.160945 186.80315 
L 89.160945 163.218898 
Q 89.160945 160.31622 85.011024 160.31622 
L 46.105512 160.31622 
Q 41.955591 160.31622 41.955591 163.218898 
L 41.955591 186.80315 
Q 41.955591 189.705827 46.105512 189.705827 
z
" clip-path="url(#pf179150279)" style="fill: #ffffff; stroke: #0f4d92; stroke-width: 0.8; stroke-linejoin: miter"/>
   </g>
   <g id="patch_16">
    <path d="M 52.330394 186.07748 
L 91.235906 186.07748 
Q 95.385827 186.07748 95.385827 183.174803 
L 95.385827 159.590551 
Q 95.385827 156.687874 91.235906 156.687874 
L 52.330394 156.687874 
Q 48.180472 156.687874 48.180472 159.590551 
L 48.180472 183.174803 
Q 48.180472 186.07748 52.330394 186.07748 
z
" clip-path="url(#pf179150279)" style="fill: #ffffff; stroke: #0f4d92; stroke-width: 0.8; stroke-linejoin: miter"/>
   </g>
   <g id="patch_17">
    <path d="M 162.303307 139.634646 
L 169.06422 139.634646 
L 169.06422 134.23748 
L 162.303307 134.23748 
z
" clip-path="url(#pf179150279)" style="fill: #d9e9fc; stroke: #7b8794; stroke-width: 0.35; stroke-linejoin: miter"/>
   </g>
   <g id="patch_18">
    <path d="M 169.652126 139.634646 
L 176.413039 139.634646 
L 176.413039 134.23748 
L 169.652126 134.23748 
z
" clip-path="url(#pf179150279)" style="fill: #deeeec; stroke: #7b8794; stroke-width: 0.35; stroke-linejoin: miter"/>
   </g>
   <g id="patch_19">
    <path d="M 177.000945 139.634646 
L 183.761858 139.634646 
L 183.761858 134.23748 
L 177.000945 134.23748 
z
" clip-path="url(#pf179150279)" style="fill: #fff4c7; stroke: #7b8794; stroke-width: 0.35; stroke-linejoin: miter"/>
   </g>
   <g id="patch_20">
    <path d="M 184.349764 139.634646 
L 191.110677 139.634646 
L 191.110677 134.23748 
L 184.349764 134.23748 
z
" clip-path="url(#pf179150279)" style="fill: #e9dff7; stroke: #7b8794; stroke-width: 0.35; stroke-linejoin: miter"/>
   </g>
   <g id="patch_21">
    <path d="M 191.698583 139.634646 
L 198.459496 139.634646 
L 198.459496 134.23748 
L 191.698583 134.23748 
z
" clip-path="url(#pf179150279)" style="fill: #d9e9fc; stroke: #7b8794; stroke-width: 0.35; stroke-linejoin: miter"/>
   </g>
   <g id="patch_22">
    <path d="M 199.047402 139.634646 
L 205.808315 139.634646 
L 205.808315 134.23748 
L 199.047402 134.23748 
z
" clip-path="url(#pf179150279)" style="fill: #deeeec; stroke: #7b8794; stroke-width: 0.35; stroke-linejoin: miter"/>
   </g>
   <g id="patch_23">
    <path d="M 162.303307 133.285039 
L 169.06422 133.285039 
L 169.06422 127.887874 
L 162.303307 127.887874 
z
" clip-path="url(#pf179150279)" style="fill: #deeeec; stroke: #7b8794; stroke-width: 0.35; stroke-linejoin: miter"/>
   </g>
   <g id="patch_24">
    <path d="M 169.652126 133.285039 
L 176.413039 133.285039 
L 176.413039 127.887874 
L 169.652126 127.887874 
z
" clip-path="url(#pf179150279)" style="fill: #fff4c7; stroke: #7b8794; stroke-width: 0.35; stroke-linejoin: miter"/>
   </g>
   <g id="patch_25">
    <path d="M 177.000945 133.285039 
L 183.761858 133.285039 
L 183.761858 127.887874 
L 177.000945 127.887874 
z
" clip-path="url(#pf179150279)" style="fill: #e9dff7; stroke: #7b8794; stroke-width: 0.35; stroke-linejoin: miter"/>
   </g>
   <g id="patch_26">
    <path d="M 184.349764 133.285039 
L 191.110677 133.285039 
L 191.110677 127.887874 
L 184.349764 127.887874 
z
" clip-path="url(#pf179150279)" style="fill: #d9e9fc; stroke: #7b8794; stroke-width: 0.35; stroke-linejoin: miter"/>
   </g>
   <g id="patch_27">
    <path d="M 191.698583 133.285039 
L 198.459496 133.285039 
L 198.459496 127.887874 
L 191.698583 127.887874 
z
" clip-path="url(#pf179150279)" style="fill: #deeeec; stroke: #7b8794; stroke-width: 0.35; stroke-linejoin: miter"/>
   </g>
   <g id="patch_28">
    <path d="M 199.047402 133.285039 
L 205.808315 133.285039 
L 205.808315 127.887874 
L 199.047402 127.887874 
z
" clip-path="url(#pf179150279)" style="fill: #fff4c7; stroke: #7b8794; stroke-width: 0.35; stroke-linejoin: miter"/>
   </g>
   <g id="patch_29">
    <path d="M 162.303307 126.935433 
L 169.06422 126.935433 
L 169.06422 121.538268 
L 162.303307 121.538268 
z
" clip-path="url(#pf179150279)" style="fill: #fff4c7; stroke: #7b8794; stroke-width: 0.35; stroke-linejoin: miter"/>
   </g>
   <g id="patch_30">
    <path d="M 169.652126 126.935433 
L 176.413039 126.935433 
L 176.413039 121.538268 
L 169.652126 121.538268 
z
" clip-path="url(#pf179150279)" style="fill: #e9dff7; stroke: #7b8794; stroke-width: 0.35; stroke-linejoin: miter"/>
   </g>
   <g id="patch_31">
    <path d="M 177.000945 126.935433 
L 183.761858 126.935433 
L 183.761858 121.538268 
L 177.000945 121.538268 
z
" clip-path="url(#pf179150279)" style="fill: #d9e9fc; stroke: #7b8794; stroke-width: 0.35; stroke-linejoin: miter"/>
   </g>
   <g id="patch_32">
    <path d="M 184.349764 126.935433 
L 191.110677 126.935433 
L 191.110677 121.538268 
L 184.349764 121.538268 
z
" clip-path="url(#pf179150279)" style="fill: #deeeec; stroke: #7b8794; stroke-width: 0.35; stroke-linejoin: miter"/>
   </g>
   <g id="patch_33">
    <path d="M 191.698583 126.935433 
L 198.459496 126.935433 
L 198.459496 121.538268 
L 191.698583 121.538268 
z
" clip-path="url(#pf179150279)" style="fill: #fff4c7; stroke: #7b8794; stroke-width: 0.35; stroke-linejoin: miter"/>
   </g>
   <g id="patch_34">
    <path d="M 199.047402 126.935433 
L 205.808315 126.935433 
L 205.808315 121.538268 
L 199.047402 121.538268 
z
" clip-path="url(#pf179150279)" style="fill: #e9dff7; stroke: #7b8794; stroke-width: 0.35; stroke-linejoin: miter"/>
   </g>
   <g id="patch_35">
    <path d="M 162.303307 120.585827 
L 169.06422 120.585827 
L 169.06422 115.188661 
L 162.303307 115.188661 
z
" clip-path="url(#pf179150279)" style="fill: #e9dff7; stroke: #7b8794; stroke-width: 0.35; stroke-linejoin: miter"/>
   </g>
   <g id="patch_36">
    <path d="M 169.652126 120.585827 
L 176.413039 120.585827 
L 176.413039 115.188661 
L 169.652126 115.188661 
z
" clip-path="url(#pf179150279)" style="fill: #d9e9fc; stroke: #7b8794; stroke-width: 0.35; stroke-linejoin: miter"/>
   </g>
   <g id="patch_37">
    <path d="M 177.000945 120.585827 
L 183.761858 120.585827 
L 183.761858 115.188661 
L 177.000945 115.188661 
z
" clip-path="url(#pf179150279)" style="fill: #deeeec; stroke: #7b8794; stroke-width: 0.35; stroke-linejoin: miter"/>
   </g>
   <g id="patch_38">
    <path d="M 184.349764 120.585827 
L 191.110677 120.585827 
L 191.110677 115.188661 
L 184.349764 115.188661 
z
" clip-path="url(#pf179150279)" style="fill: #fff4c7; stroke: #7b8794; stroke-width: 0.35; stroke-linejoin: miter"/>
   </g>
   <g id="patch_39">
    <path d="M 191.698583 120.585827 
L 198.459496 120.585827 
L 198.459496 115.188661 
L 191.698583 115.188661 
z
" clip-path="url(#pf179150279)" style="fill: #e9dff7; stroke: #7b8794; stroke-width: 0.35; stroke-linejoin: miter"/>
   </g>
   <g id="patch_40">
    <path d="M 199.047402 120.585827 
L 205.808315 120.585827 
L 205.808315 115.188661 
L 199.047402 115.188661 
z
" clip-path="url(#pf179150279)" style="fill: #d9e9fc; stroke: #7b8794; stroke-width: 0.35; stroke-linejoin: miter"/>
   </g>
   <g id="patch_41">
    <path d="M 216.771024 138.908976 
L 243.226772 138.908976 
Q 248.414173 138.908976 248.414173 135.28063 
L 248.414173 117.864567 
Q 248.414173 114.23622 243.226772 114.23622 
L 216.771024 114.23622 
Q 211.583622 114.23622 211.583622 117.864567 
L 211.583622 135.28063 
Q 211.583622 138.908976 216.771024 138.908976 
z
" clip-path="url(#pf179150279)" style="fill: #ffffff; stroke: #b8c6d8; stroke-width: 0.9; stroke-linejoin: miter"/>
   </g>
   <g id="patch_42">
    <path d="M 209.416717 126.935433 
Q 211.324411 126.935433 212.002267 126.935433 
" clip-path="url(#pf179150279)" style="fill: none; stroke: #27834f; stroke-width: 1.1; stroke-linecap: round"/>
    <path d="M 208.402267 125.135433 
L 212.002267 126.935433 
L 208.402267 128.735433 
z
" clip-path="url(#pf179150279)" style="fill: #27834f; stroke: #27834f; stroke-width: 1.1; stroke-linecap: round"/>
   </g>
   <g id="patch_43">
    <path d="M 163.340787 180.634961 
L 197.577638 180.634961 
Q 202.765039 180.634961 202.765039 177.006614 
L 202.765039 157.776378 
Q 202.765039 154.148031 197.577638 154.148031 
L 163.340787 154.148031 
Q 158.153386 154.148031 158.153386 157.776378 
L 158.153386 177.006614 
Q 158.153386 180.634961 163.340787 180.634961 
z
" clip-path="url(#pf179150279)" style="fill: #ffffff; stroke: #b8c6d8; stroke-width: 0.9; stroke-linejoin: miter"/>
   </g>
   <g id="patch_44">
    <path d="M 208.989921 180.634961 
L 245.820472 180.634961 
Q 251.007874 180.634961 251.007874 177.006614 
L 251.007874 157.776378 
Q 251.007874 154.148031 245.820472 154.148031 
L 208.989921 154.148031 
Q 203.80252 154.148031 203.80252 157.776378 
L 203.80252 177.006614 
Q 203.80252 180.634961 208.989921 180.634961 
z
" clip-path="url(#pf179150279)" style="fill: #ffffff; stroke: #b8c6d8; stroke-width: 0.9; stroke-linejoin: miter"/>
   </g>
   <g id="patch_45">
    <path d="M 293.544567 121.855748 
C 294.645139 121.855748 295.700782 121.549904 296.479004 121.005574 
C 297.257226 120.461243 297.694488 119.72287 297.694488 118.953071 
C 297.694488 118.183272 297.257226 117.444898 296.479004 116.900568 
C 295.700782 116.356238 294.645139 116.050394 293.544567 116.050394 
C 292.443995 116.050394 291.388351 116.356238 290.610129 116.900568 
C 289.831908 117.444898 289.394646 118.183272 289.394646 118.953071 
C 289.394646 119.72287 289.831908 120.461243 290.610129 121.005574 
C 291.388351 121.549904 292.443995 121.855748 293.544567 121.855748 
z
" clip-path="url(#pf179150279)" style="fill: #9fc3e6; stroke: #0f4d92; stroke-width: 0.7; stroke-linejoin: miter"/>
   </g>
   <g id="patch_46">
    <path d="M 309.106772 109.156535 
C 310.207344 109.156535 311.262987 108.850691 312.041209 108.306361 
C 312.819431 107.762031 313.256693 107.023657 313.256693 106.253858 
C 313.256693 105.484059 312.819431 104.745686 312.041209 104.201356 
C 311.262987 103.657025 310.207344 103.351181 309.106772 103.351181 
C 308.0062 103.351181 306.950556 103.657025 306.172334 104.201356 
C 305.394112 104.745686 304.95685 105.484059 304.95685 106.253858 
C 304.95685 107.023657 305.394112 107.762031 306.172334 108.306361 
C 306.950556 108.850691 308.0062 109.156535 309.106772 109.156535 
z
" clip-path="url(#pf179150279)" style="fill: #9fc3e6; stroke: #0f4d92; stroke-width: 0.7; stroke-linejoin: miter"/>
   </g>
   <g id="patch_47">
    <path d="M 327.262677 114.599055 
C 328.363249 114.599055 329.418893 114.293211 330.197115 113.748881 
C 330.975337 113.204551 331.412598 112.466177 331.412598 111.696378 
C 331.412598 110.926579 330.975337 110.188205 330.197115 109.643875 
C 329.418893 109.099545 328.363249 108.793701 327.262677 108.793701 
C 326.162105 108.793701 325.106462 109.099545 324.32824 109.643875 
C 323.550018 110.188205 323.112756 110.926579 323.112756 111.696378 
C 323.112756 112.466177 323.550018 113.204551 324.32824 113.748881 
C 325.106462 114.293211 326.162105 114.599055 327.262677 114.599055 
z
" clip-path="url(#pf179150279)" style="fill: #9fc3e6; stroke: #0f4d92; stroke-width: 0.7; stroke-linejoin: miter"/>
   </g>
   <g id="patch_48">
    <path d="M 319.481575 132.740787 
C 320.582147 132.740787 321.63779 132.434943 322.416012 131.890613 
C 323.194234 131.346283 323.631496 130.607909 323.631496 129.83811 
C 323.631496 129.068311 323.194234 128.329938 322.416012 127.785608 
C 321.63779 127.241277 320.582147 126.935433 319.481575 126.935433 
C 318.381003 126.935433 317.325359 127.241277 316.547137 127.785608 
C 315.768915 128.329938 315.331654 129.068311 315.331654 129.83811 
C 315.331654 130.607909 315.768915 131.346283 316.547137 131.890613 
C 317.325359 132.434943 318.381003 132.740787 319.481575 132.740787 
z
" clip-path="url(#pf179150279)" style="fill: #9fc3e6; stroke: #0f4d92; stroke-width: 0.7; stroke-linejoin: miter"/>
   </g>
   <g id="patch_49">
    <path d="M 298.731969 134.554961 
C 299.83254 134.554961 300.888184 134.249116 301.666406 133.704786 
C 302.444628 133.160456 302.88189 132.422082 302.88189 131.652283 
C 302.88189 130.882484 302.444628 130.144111 301.666406 129.599781 
C 300.888184 129.055451 299.83254 128.749606 298.731969 128.749606 
C 297.631397 128.749606 296.575753 129.055451 295.797531 129.599781 
C 295.019309 130.144111 294.582047 130.882484 294.582047 131.652283 
C 294.582047 132.422082 295.019309 133.160456 295.797531 133.704786 
C 296.575753 134.249116 297.631397 134.554961 298.731969 134.554961 
z
" clip-path="url(#pf179150279)" style="fill: #9fc3e6; stroke: #0f4d92; stroke-width: 0.7; stroke-linejoin: miter"/>
   </g>
   <g id="patch_50">
    <path d="M 290.950866 156.687874 
L 298.395825 156.687874 
L 298.395825 152.061732 
L 290.950866 152.061732 
z
" clip-path="url(#pf179150279)" style="fill: #d9e9fc; stroke: #7b8794; stroke-width: 0.35; stroke-linejoin: miter"/>
   </g>
   <g id="patch_51">
    <path d="M 299.043213 156.687874 
L 306.488171 156.687874 
L 306.488171 152.061732 
L 299.043213 152.061732 
z
" clip-path="url(#pf179150279)" style="fill: #e9dff7; stroke: #7b8794; stroke-width: 0.35; stroke-linejoin: miter"/>
   </g>
   <g id="patch_52">
    <path d="M 307.135559 156.687874 
L 314.580518 156.687874 
L 314.580518 152.061732 
L 307.135559 152.061732 
z
" clip-path="url(#pf179150279)" style="fill: #fff4c7; stroke: #7b8794; stroke-width: 0.35; stroke-linejoin: miter"/>
   </g>
   <g id="patch_53">
    <path d="M 315.227906 156.687874 
L 322.672864 156.687874 
L 322.672864 152.061732 
L 315.227906 152.061732 
z
" clip-path="url(#pf179150279)" style="fill: #d9e9fc; stroke: #7b8794; stroke-width: 0.35; stroke-linejoin: miter"/>
   </g>
   <g id="patch_54">
    <path d="M 323.320252 156.687874 
L 330.765211 156.687874 
L 330.765211 152.061732 
L 323.320252 152.061732 
z
" clip-path="url(#pf179150279)" style="fill: #e9dff7; stroke: #7b8794; stroke-width: 0.35; stroke-linejoin: miter"/>
   </g>
   <g id="patch_55">
    <path d="M 290.950866 151.245354 
L 298.395825 151.245354 
L 298.395825 146.619213 
L 290.950866 146.619213 
z
" clip-path="url(#pf179150279)" style="fill: #e9dff7; stroke: #7b8794; stroke-width: 0.35; stroke-linejoin: miter"/>
   </g>
   <g id="patch_56">
    <path d="M 299.043213 151.245354 
L 306.488171 151.245354 
L 306.488171 146.619213 
L 299.043213 146.619213 
z
" clip-path="url(#pf179150279)" style="fill: #fff4c7; stroke: #7b8794; stroke-width: 0.35; stroke-linejoin: miter"/>
   </g>
   <g id="patch_57">
    <path d="M 307.135559 151.245354 
L 314.580518 151.245354 
L 314.580518 146.619213 
L 307.135559 146.619213 
z
" clip-path="url(#pf179150279)" style="fill: #d9e9fc; stroke: #7b8794; stroke-width: 0.35; stroke-linejoin: miter"/>
   </g>
   <g id="patch_58">
    <path d="M 315.227906 151.245354 
L 322.672864 151.245354 
L 322.672864 146.619213 
L 315.227906 146.619213 
z
" clip-path="url(#pf179150279)" style="fill: #e9dff7; stroke: #7b8794; stroke-width: 0.35; stroke-linejoin: miter"/>
   </g>
   <g id="patch_59">
    <path d="M 323.320252 151.245354 
L 330.765211 151.245354 
L 330.765211 146.619213 
L 323.320252 146.619213 
z
" clip-path="url(#pf179150279)" style="fill: #fff4c7; stroke: #7b8794; stroke-width: 0.35; stroke-linejoin: miter"/>
   </g>
   <g id="patch_60">
    <path d="M 290.950866 145.802835 
L 298.395825 145.802835 
L 298.395825 141.176693 
L 290.950866 141.176693 
z
" clip-path="url(#pf179150279)" style="fill: #fff4c7; stroke: #7b8794; stroke-width: 0.35; stroke-linejoin: miter"/>
   </g>
   <g id="patch_61">
    <path d="M 299.043213 145.802835 
L 306.488171 145.802835 
L 306.488171 141.176693 
L 299.043213 141.176693 
z
" clip-path="url(#pf179150279)" style="fill: #d9e9fc; stroke: #7b8794; stroke-width: 0.35; stroke-linejoin: miter"/>
   </g>
   <g id="patch_62">
    <path d="M 307.135559 145.802835 
L 314.580518 145.802835 
L 314.580518 141.176693 
L 307.135559 141.176693 
z
" clip-path="url(#pf179150279)" style="fill: #e9dff7; stroke: #7b8794; stroke-width: 0.35; stroke-linejoin: miter"/>
   </g>
   <g id="patch_63">
    <path d="M 315.227906 145.802835 
L 322.672864 145.802835 
L 322.672864 141.176693 
L 315.227906 141.176693 
z
" clip-path="url(#pf179150279)" style="fill: #fff4c7; stroke: #7b8794; stroke-width: 0.35; stroke-linejoin: miter"/>
   </g>
   <g id="patch_64">
    <path d="M 323.320252 145.802835 
L 330.765211 145.802835 
L 330.765211 141.176693 
L 323.320252 141.176693 
z
" clip-path="url(#pf179150279)" style="fill: #d9e9fc; stroke: #7b8794; stroke-width: 0.35; stroke-linejoin: miter"/>
   </g>
   <g id="patch_65">
    <path d="M 325.981024 124.163017 
Q 336.082004 127.842791 345.027436 131.1016 
" clip-path="url(#pf179150279)" style="fill: none; stroke: #6656a4; stroke-width: 1.1; stroke-linecap: round"/>
    <path d="M 342.261026 128.178078 
L 345.027436 131.1016 
L 341.028773 131.560615 
z
" clip-path="url(#pf179150279)" style="fill: #6656a4; stroke: #6656a4; stroke-width: 1.1; stroke-linecap: round"/>
   </g>
   <g id="patch_66">
    <path d="M 332.069889 148.269995 
Q 339.193268 144.53314 345.227568 141.367606 
" clip-path="url(#pf179150279)" style="fill: none; stroke: #6656a4; stroke-width: 1.1; stroke-linecap: round"/>
    <path d="M 341.203409 141.445999 
L 345.227568 141.367606 
L 342.875787 144.633969 
z
" clip-path="url(#pf179150279)" style="fill: #6656a4; stroke: #6656a4; stroke-width: 1.1; stroke-linecap: round"/>
   </g>
   <g id="patch_67">
    <path d="M 344.899843 145.077165 
L 369.28063 145.077165 
Q 375.505512 145.077165 375.505512 140.72315 
L 375.505512 123.669921 
Q 375.505512 119.315906 369.28063 119.315906 
L 344.899843 119.315906 
Q 338.674961 119.315906 338.674961 123.669921 
L 338.674961 140.72315 
Q 338.674961 145.077165 344.899843 145.077165 
z
" clip-path="url(#pf179150279)" style="fill: #ffffff; stroke: #afa3d5; stroke-width: 0.9; stroke-linejoin: miter"/>
   </g>
   <g id="patch_68">
    <path d="M 300.806929 193.334173 
L 361.499528 193.334173 
Q 367.724409 193.334173 367.724409 188.980157 
L 367.724409 171.564094 
Q 367.724409 167.210079 361.499528 167.210079 
L 300.806929 167.210079 
Q 294.582047 167.210079 294.582047 171.564094 
L 294.582047 188.980157 
Q 294.582047 193.334173 300.806929 193.334173 
z
" clip-path="url(#pf179150279)" style="fill: #ffffff; stroke: #afa3d5; stroke-width: 0.9; stroke-linejoin: miter"/>
   </g>
   <g id="patch_69">
    <path d="M 355.624061 143.984897 
Q 344.379858 155.782093 333.984166 166.689048 
" clip-path="url(#pf179150279)" style="fill: none; stroke: #6656a4; stroke-width: 1.1; stroke-linecap: round"/>
    <path d="M 337.770906 165.325008 
L 333.984166 166.689048 
L 335.164978 162.841233 
z
" clip-path="url(#pf179150279)" style="fill: #6656a4; stroke: #6656a4; stroke-width: 1.1; stroke-linecap: round"/>
   </g>
   <g id="patch_70">
    <path d="M 410.261102 144.351496 
L 446.572913 144.351496 
Q 451.760315 144.351496 451.760315 140.72315 
L 451.760315 104.07685 
Q 451.760315 100.448504 446.572913 100.448504 
L 410.261102 100.448504 
Q 405.073701 100.448504 405.073701 104.07685 
L 405.073701 140.72315 
Q 405.073701 144.351496 410.261102 144.351496 
z
" clip-path="url(#pf179150279)" style="fill: #ffffff; stroke: #d9b6bb; stroke-width: 0.9; stroke-linejoin: miter"/>
   </g>
   <g id="patch_71">
    <path d="M 423.748346 134.917795 
L 426.712576 134.917795 
L 426.712576 127.896945 
L 423.748346 127.896945 
z
" clip-path="url(#pf179150279)" style="fill: #8b6bcb; stroke: #6a54a3; stroke-width: 0.45; stroke-linejoin: miter"/>
   </g>
   <g id="patch_72">
    <path d="M 427.898268 134.917795 
L 430.862497 134.917795 
L 430.862497 123.684435 
L 427.898268 123.684435 
z
" clip-path="url(#pf179150279)" style="fill: #8b6bcb; stroke: #6a54a3; stroke-width: 0.45; stroke-linejoin: miter"/>
   </g>
   <g id="patch_73">
    <path d="M 432.048189 134.917795 
L 435.012418 134.917795 
L 435.012418 125.556661 
L 432.048189 125.556661 
z
" clip-path="url(#pf179150279)" style="fill: #8b6bcb; stroke: #6a54a3; stroke-width: 0.45; stroke-linejoin: miter"/>
   </g>
   <g id="patch_74">
    <path d="M 436.19811 134.917795 
L 439.16234 134.917795 
L 439.16234 121.656189 
L 436.19811 121.656189 
z
" clip-path="url(#pf179150279)" style="fill: #8b6bcb; stroke: #6a54a3; stroke-width: 0.45; stroke-linejoin: miter"/>
   </g>
   <g id="patch_75">
    <path d="M 459.022677 144.351496 
L 495.334488 144.351496 
Q 500.52189 144.351496 500.52189 140.72315 
L 500.52189 104.07685 
Q 500.52189 100.448504 495.334488 100.448504 
L 459.022677 100.448504 
Q 453.835276 100.448504 453.835276 104.07685 
L 453.835276 140.72315 
Q 453.835276 144.351496 459.022677 144.351496 
z
" clip-path="url(#pf179150279)" style="fill: #ffffff; stroke: #d9b6bb; stroke-width: 0.9; stroke-linejoin: miter"/>
   </g>
   <g id="patch_76">
    <path d="M 468.87874 133.103622 
L 472.90157 133.103622 
L 472.90157 129.83811 
L 468.87874 129.83811 
z
" clip-path="url(#pf179150279)" style="fill: #8f89bd; stroke: #ffffff; stroke-width: 0.25; stroke-linejoin: miter"/>
   </g>
   <g id="patch_77">
    <path d="M 473.158346 133.103622 
L 477.181176 133.103622 
L 477.181176 129.83811 
L 473.158346 129.83811 
z
" clip-path="url(#pf179150279)" style="fill: #7e80bd; stroke: #ffffff; stroke-width: 0.25; stroke-linejoin: miter"/>
   </g>
   <g id="patch_78">
    <path d="M 477.437953 133.103622 
L 481.460783 133.103622 
L 481.460783 129.83811 
L 477.437953 129.83811 
z
" clip-path="url(#pf179150279)" style="fill: #6775bd; stroke: #ffffff; stroke-width: 0.25; stroke-linejoin: miter"/>
   </g>
   <g id="patch_79">
    <path d="M 481.717559 133.103622 
L 485.740389 133.103622 
L 485.740389 129.83811 
L 481.717559 129.83811 
z
" clip-path="url(#pf179150279)" style="fill: #8383bd; stroke: #ffffff; stroke-width: 0.25; stroke-linejoin: miter"/>
   </g>
   <g id="patch_80">
    <path d="M 468.87874 129.475276 
L 472.90157 129.475276 
L 472.90157 126.209764 
L 468.87874 126.209764 
z
" clip-path="url(#pf179150279)" style="fill: #8684bd; stroke: #ffffff; stroke-width: 0.25; stroke-linejoin: miter"/>
   </g>
   <g id="patch_81">
    <path d="M 473.158346 129.475276 
L 477.181176 129.475276 
L 477.181176 126.209764 
L 473.158346 126.209764 
z
" clip-path="url(#pf179150279)" style="fill: #5b6fbd; stroke: #ffffff; stroke-width: 0.25; stroke-linejoin: miter"/>
   </g>
   <g id="patch_82">
    <path d="M 477.437953 129.475276 
L 481.460783 129.475276 
L 481.460783 126.209764 
L 477.437953 126.209764 
z
" clip-path="url(#pf179150279)" style="fill: #4163bd; stroke: #ffffff; stroke-width: 0.25; stroke-linejoin: miter"/>
   </g>
   <g id="patch_83">
    <path d="M 481.717559 129.475276 
L 485.740389 129.475276 
L 485.740389 126.209764 
L 481.717559 126.209764 
z
" clip-path="url(#pf179150279)" style="fill: #767cbd; stroke: #ffffff; stroke-width: 0.25; stroke-linejoin: miter"/>
   </g>
   <g id="patch_84">
    <path d="M 468.87874 125.846929 
L 472.90157 125.846929 
L 472.90157 122.581417 
L 468.87874 122.581417 
z
" clip-path="url(#pf179150279)" style="fill: #918abd; stroke: #ffffff; stroke-width: 0.25; stroke-linejoin: miter"/>
   </g>
   <g id="patch_85">
    <path d="M 473.158346 125.846929 
L 477.181176 125.846929 
L 477.181176 122.581417 
L 473.158346 122.581417 
z
" clip-path="url(#pf179150279)" style="fill: #7c80bd; stroke: #ffffff; stroke-width: 0.25; stroke-linejoin: miter"/>
   </g>
   <g id="patch_86">
    <path d="M 477.437953 125.846929 
L 481.460783 125.846929 
L 481.460783 122.581417 
L 477.437953 122.581417 
z
" clip-path="url(#pf179150279)" style="fill: #536cbd; stroke: #ffffff; stroke-width: 0.25; stroke-linejoin: miter"/>
   </g>
   <g id="patch_87">
    <path d="M 481.717559 125.846929 
L 485.740389 125.846929 
L 485.740389 122.581417 
L 481.717559 122.581417 
z
" clip-path="url(#pf179150279)" style="fill: #6373bd; stroke: #ffffff; stroke-width: 0.25; stroke-linejoin: miter"/>
   </g>
   <g id="patch_88">
    <path d="M 468.87874 122.218583 
L 472.90157 122.218583 
L 472.90157 118.953071 
L 468.87874 118.953071 
z
" clip-path="url(#pf179150279)" style="fill: #988dbd; stroke: #ffffff; stroke-width: 0.25; stroke-linejoin: miter"/>
   </g>
   <g id="patch_89">
    <path d="M 473.158346 122.218583 
L 477.181176 122.218583 
L 477.181176 118.953071 
L 473.158346 118.953071 
z
" clip-path="url(#pf179150279)" style="fill: #8986bd; stroke: #ffffff; stroke-width: 0.25; stroke-linejoin: miter"/>
   </g>
   <g id="patch_90">
    <path d="M 477.437953 122.218583 
L 481.460783 122.218583 
L 481.460783 118.953071 
L 477.437953 118.953071 
z
" clip-path="url(#pf179150279)" style="fill: #767cbd; stroke: #ffffff; stroke-width: 0.25; stroke-linejoin: miter"/>
   </g>
   <g id="patch_91">
    <path d="M 481.717559 122.218583 
L 485.740389 122.218583 
L 485.740389 118.953071 
L 481.717559 118.953071 
z
" clip-path="url(#pf179150279)" style="fill: #8081bd; stroke: #ffffff; stroke-width: 0.25; stroke-linejoin: miter"/>
   </g>
   <g id="patch_92">
    <path d="M 465.247559 136.731969 
L 489.628346 136.731969 
Q 491.184567 136.731969 491.184567 135.643465 
L 491.184567 116.050394 
Q 491.184567 114.96189 489.628346 114.96189 
L 465.247559 114.96189 
Q 463.691339 114.96189 463.691339 116.050394 
L 463.691339 135.643465 
Q 463.691339 136.731969 465.247559 136.731969 
L 465.247559 136.731969 
z
" clip-path="url(#pf179150279)" style="fill: none; stroke: #aab7c8; stroke-width: 0.55; stroke-linejoin: miter"/>
   </g>
   <g id="patch_93">
    <path d="M 418.560945 192.245669 
L 489.628346 192.245669 
Q 495.853228 192.245669 495.853228 187.891654 
L 495.853228 165.395906 
Q 495.853228 161.04189 489.628346 161.04189 
L 418.560945 161.04189 
Q 412.336063 161.04189 412.336063 165.395906 
L 412.336063 187.891654 
Q 412.336063 192.245669 418.560945 192.245669 
z
" clip-path="url(#pf179150279)" style="fill: #ffffff; stroke: #d9b6bb; stroke-width: 0.9; stroke-linejoin: miter"/>
   </g>
   <g id="patch_94">
    <path d="M 138.350202 136.006299 
Q 141.293982 136.006299 142.728416 136.006299 
" clip-path="url(#pf179150279)" style="fill: none; stroke: #93a4ba; stroke-width: 1.35; stroke-linecap: round"/>
    <path d="M 136.728416 133.006299 
L 142.728416 136.006299 
L 136.728416 139.006299 
z
" clip-path="url(#pf179150279)" style="fill: #93a4ba; stroke: #93a4ba; stroke-width: 1.35; stroke-linecap: round"/>
   </g>
   <g id="patch_95">
    <path d="M 262.847839 136.006299 
Q 265.79162 136.006299 267.226054 136.006299 
" clip-path="url(#pf179150279)" style="fill: none; stroke: #93a4ba; stroke-width: 1.35; stroke-linecap: round"/>
    <path d="M 261.226054 133.006299 
L 267.226054 136.006299 
L 261.226054 139.006299 
z
" clip-path="url(#pf179150279)" style="fill: #93a4ba; stroke: #93a4ba; stroke-width: 1.35; stroke-linecap: round"/>
   </g>
   <g id="patch_96">
    <path d="M 387.345477 136.006299 
Q 390.289258 136.006299 391.723692 136.006299 
" clip-path="url(#pf179150279)" style="fill: none; stroke: #93a4ba; stroke-width: 1.35; stroke-linecap: round"/>
    <path d="M 385.723692 133.006299 
L 391.723692 136.006299 
L 385.723692 139.006299 
z
" clip-path="url(#pf179150279)" style="fill: #93a4ba; stroke: #93a4ba; stroke-width: 1.35; stroke-linecap: round"/>
   </g>
   <g id="patch_97">
    <path d="M 31.580787 322.140472 
L 501.55937 322.140472 
Q 511.934173 322.140472 511.934173 314.88378 
L 511.934173 254.653228 
Q 511.934173 247.396535 501.55937 247.396535 
L 31.580787 247.396535 
Q 21.205984 247.396535 21.205984 254.653228 
L 21.205984 314.88378 
Q 21.205984 322.140472 31.580787 322.140472 
z
" clip-path="url(#pf179150279)" style="fill: #fff8ed; stroke: #f0c7a4; stroke-width: 0.9; stroke-linejoin: miter"/>
   </g>
   <g id="patch_98">
    <path d="M 61.667717 297.467717 
C 63.043432 297.467717 64.362986 297.085411 65.335763 296.404998 
C 66.308541 295.724586 66.855118 294.801619 66.855118 293.83937 
C 66.855118 292.877121 66.308541 291.954154 65.335763 291.273742 
C 64.362986 290.593329 63.043432 290.211024 61.667717 290.211024 
C 60.292002 290.211024 58.972447 290.593329 57.99967 291.273742 
C 57.026892 291.954154 56.480315 292.877121 56.480315 293.83937 
C 56.480315 294.801619 57.026892 295.724586 57.99967 296.404998 
C 58.972447 297.085411 60.292002 297.467717 61.667717 297.467717 
z
" clip-path="url(#pf179150279)" style="fill: #ffffff; stroke: #27834f; stroke-width: 0.9; stroke-linejoin: miter"/>
   </g>
   <g id="patch_99">
    <path d="M 134.291339 297.467717 
C 135.667054 297.467717 136.986608 297.085411 137.959385 296.404998 
C 138.932163 295.724586 139.47874 294.801619 139.47874 293.83937 
C 139.47874 292.877121 138.932163 291.954154 137.959385 291.273742 
C 136.986608 290.593329 135.667054 290.211024 134.291339 290.211024 
C 132.915624 290.211024 131.596069 290.593329 130.623292 291.273742 
C 129.650514 291.954154 129.103937 292.877121 129.103937 293.83937 
C 129.103937 294.801619 129.650514 295.724586 130.623292 296.404998 
C 131.596069 297.085411 132.915624 297.467717 134.291339 297.467717 
z
" clip-path="url(#pf179150279)" style="fill: #ffffff; stroke: #27834f; stroke-width: 0.9; stroke-linejoin: miter"/>
   </g>
   <g id="patch_100">
    <path d="M 206.914961 297.467717 
C 208.290676 297.467717 209.61023 297.085411 210.583007 296.404998 
C 211.555785 295.724586 212.102362 294.801619 212.102362 293.83937 
C 212.102362 292.877121 211.555785 291.954154 210.583007 291.273742 
C 209.61023 290.593329 208.290676 290.211024 206.914961 290.211024 
C 205.539246 290.211024 204.219691 290.593329 203.246914 291.273742 
C 202.274136 291.954154 201.727559 292.877121 201.727559 293.83937 
C 201.727559 294.801619 202.274136 295.724586 203.246914 296.404998 
C 204.219691 297.085411 205.539246 297.467717 206.914961 297.467717 
z
" clip-path="url(#pf179150279)" style="fill: #ffffff; stroke: #27834f; stroke-width: 0.9; stroke-linejoin: miter"/>
   </g>
   <g id="patch_101">
    <path d="M 279.538583 297.467717 
C 280.914298 297.467717 282.233852 297.085411 283.20663 296.404998 
C 284.179407 295.724586 284.725984 294.801619 284.725984 293.83937 
C 284.725984 292.877121 284.179407 291.954154 283.20663 291.273742 
C 282.233852 290.593329 280.914298 290.211024 279.538583 290.211024 
C 278.162868 290.211024 276.843313 290.593329 275.870536 291.273742 
C 274.897758 291.954154 274.351181 292.877121 274.351181 293.83937 
C 274.351181 294.801619 274.897758 295.724586 275.870536 296.404998 
C 276.843313 297.085411 278.162868 297.467717 279.538583 297.467717 
z
" clip-path="url(#pf179150279)" style="fill: #ffffff; stroke: #27834f; stroke-width: 0.9; stroke-linejoin: miter"/>
   </g>
   <g id="patch_102">
    <path d="M 354.755906 297.467717 
C 356.13162 297.467717 357.451175 297.085411 358.423952 296.404998 
C 359.39673 295.724586 359.943307 294.801619 359.943307 293.83937 
C 359.943307 292.877121 359.39673 291.954154 358.423952 291.273742 
C 357.451175 290.593329 356.13162 290.211024 354.755906 290.211024 
C 353.380191 290.211024 352.060636 290.593329 351.087859 291.273742 
C 350.115081 291.954154 349.568504 292.877121 349.568504 293.83937 
C 349.568504 294.801619 350.115081 295.724586 351.087859 296.404998 
C 352.060636 297.085411 353.380191 297.467717 354.755906 297.467717 
z
" clip-path="url(#pf179150279)" style="fill: #ffffff; stroke: #27834f; stroke-width: 0.9; stroke-linejoin: miter"/>
   </g>
   <g id="patch_103">
    <path d="M 429.973228 297.467717 
C 431.348943 297.467717 432.668498 297.085411 433.641275 296.404998 
C 434.614053 295.724586 435.16063 294.801619 435.16063 293.83937 
C 435.16063 292.877121 434.614053 291.954154 433.641275 291.273742 
C 432.668498 290.593329 431.348943 290.211024 429.973228 290.211024 
C 428.597513 290.211024 427.277959 290.593329 426.305182 291.273742 
C 425.332404 291.954154 424.785827 292.877121 424.785827 293.83937 
C 424.785827 294.801619 425.332404 295.724586 426.305182 296.404998 
C 427.277959 297.085411 428.597513 297.467717 429.973228 297.467717 
z
" clip-path="url(#pf179150279)" style="fill: #ffffff; stroke: #27834f; stroke-width: 0.9; stroke-linejoin: miter"/>
   </g>
   <g id="patch_104">
    <path d="M 487.034646 297.467717 
C 488.410361 297.467717 489.729915 297.085411 490.702692 296.404998 
C 491.67547 295.724586 492.222047 294.801619 492.222047 293.83937 
C 492.222047 292.877121 491.67547 291.954154 490.702692 291.273742 
C 489.729915 290.593329 488.410361 290.211024 487.034646 290.211024 
C 485.658931 290.211024 484.339376 290.593329 483.366599 291.273742 
C 482.393821 291.954154 481.847244 292.877121 481.847244 293.83937 
C 481.847244 294.801619 482.393821 295.724586 483.366599 296.404998 
C 484.339376 297.085411 485.658931 297.467717 487.034646 297.467717 
z
" clip-path="url(#pf179150279)" style="fill: #ffffff; stroke: #27834f; stroke-width: 0.9; stroke-linejoin: miter"/>
   </g>
   <g id="patch_105">
    <path d="M 38.227842 310.166929 
Q 263.976281 310.166929 488.718488 310.166929 
" clip-path="url(#pf179150279)" style="fill: none; stroke-dasharray: 2.7,1.8; stroke-dashoffset: 0; stroke: #e07025; stroke-width: 0.9; stroke-linecap: round"/>
    <path d="M 485.118488 308.366929 
L 488.718488 310.166929 
L 485.118488 311.966929 
z
" clip-path="url(#pf179150279)" style="fill: #e07025; stroke-dasharray: 2.7,1.8; stroke-dashoffset: 0; stroke: #e07025; stroke-width: 0.9; stroke-linecap: round"/>
   </g>
   <g id="patch_106">
    <path d="M 37.805669 77.227087 
L 111.466772 77.227087 
Q 117.691654 77.227087 117.691654 72.873071 
L 117.691654 36.589606 
Q 117.691654 32.235591 111.466772 32.235591 
L 37.805669 32.235591 
Q 31.580787 32.235591 31.580787 36.589606 
L 31.580787 72.873071 
Q 31.580787 77.227087 37.805669 77.227087 
z
" clip-path="url(#pf179150279)" style="fill: #ffffff; stroke-dasharray: 3.2,2.4; stroke-dashoffset: 0; stroke: #cbd5e1; stroke-width: 0.8; stroke-linejoin: miter"/>
   </g>
   <g id="patch_107">
    <path d="M 47.052694 44.571969 
Q 53.109579 44.571969 58.160233 44.571969 
" clip-path="url(#pf179150279)" style="fill: none; stroke: #0f4d92; stroke-width: 0.9; stroke-linecap: round"/>
    <path d="M 54.960233 42.971969 
L 58.160233 44.571969 
L 54.960233 46.171969 
z
" clip-path="url(#pf179150279)" style="fill: #0f4d92; stroke: #0f4d92; stroke-width: 0.9; stroke-linecap: round"/>
   </g>
   <g id="patch_108">
    <path d="M 47.052694 55.457008 
Q 53.109579 55.457008 58.160233 55.457008 
" clip-path="url(#pf179150279)" style="fill: none; stroke-dasharray: 2.7,1.8; stroke-dashoffset: 0; stroke: #e07025; stroke-width: 0.9; stroke-linecap: round"/>
    <path d="M 54.960233 53.857008 
L 58.160233 55.457008 
L 54.960233 57.057008 
z
" clip-path="url(#pf179150279)" style="fill: #e07025; stroke-dasharray: 2.7,1.8; stroke-dashoffset: 0; stroke: #e07025; stroke-width: 0.9; stroke-linecap: round"/>
   </g>
   <g id="patch_109">
    <path d="M 47.052694 66.342047 
Q 53.109579 66.342047 58.160233 66.342047 
" clip-path="url(#pf179150279)" style="fill: none; stroke-dasharray: 2.7,1.8; stroke-dashoffset: 0; stroke: #6656a4; stroke-width: 0.9; stroke-linecap: round"/>
    <path d="M 54.960233 64.742047 
L 58.160233 66.342047 
L 54.960233 67.942047 
z
" clip-path="url(#pf179150279)" style="fill: #6656a4; stroke-dasharray: 2.7,1.8; stroke-dashoffset: 0; stroke: #6656a4; stroke-width: 0.9; stroke-linecap: round"/>
   </g>
   <g id="line2d_1">
    <path d="M 45.068031 108.068031 
L 65.298898 108.068031 
" clip-path="url(#pf179150279)" style="fill: none; stroke: #0f4d92; stroke-opacity: 0.75; stroke-width: 1.3; stroke-linecap: square"/>
   </g>
   <g id="line2d_2">
    <path d="M 45.068031 117.138898 
L 65.298898 117.138898 
" clip-path="url(#pf179150279)" style="fill: none; stroke: #227c70; stroke-opacity: 0.75; stroke-width: 1.3; stroke-linecap: square"/>
   </g>
   <g id="line2d_3">
    <path d="M 45.068031 126.209764 
L 65.298898 126.209764 
" clip-path="url(#pf179150279)" style="fill: none; stroke: #b7791f; stroke-opacity: 0.75; stroke-width: 1.3; stroke-linecap: square"/>
   </g>
   <g id="line2d_4">
    <path d="M 45.068031 135.28063 
L 65.298898 135.28063 
" clip-path="url(#pf179150279)" style="fill: none; stroke: #6656a4; stroke-opacity: 0.75; stroke-width: 1.3; stroke-linecap: square"/>
   </g>
   <g id="line2d_5">
    <path d="M 46.105512 183.900472 
L 72.56126 183.900472 
" clip-path="url(#pf179150279)" style="fill: none; stroke: #0f4d92; stroke-opacity: 0.55; stroke-width: 0.8; stroke-linecap: square"/>
   </g>
   <g id="line2d_6">
    <path d="M 46.105512 177.732283 
L 72.56126 177.732283 
" clip-path="url(#pf179150279)" style="fill: none; stroke: #0f4d92; stroke-opacity: 0.55; stroke-width: 0.8; stroke-linecap: square"/>
   </g>
   <g id="line2d_7">
    <path d="M 46.105512 171.564094 
L 72.56126 171.564094 
" clip-path="url(#pf179150279)" style="fill: none; stroke: #0f4d92; stroke-opacity: 0.55; stroke-width: 0.8; stroke-linecap: square"/>
   </g>
   <g id="line2d_8">
    <path d="M 46.105512 165.395906 
L 72.56126 165.395906 
" clip-path="url(#pf179150279)" style="fill: none; stroke: #0f4d92; stroke-opacity: 0.55; stroke-width: 0.8; stroke-linecap: square"/>
   </g>
   <g id="line2d_9">
    <path d="M 52.330394 180.272126 
L 78.786142 180.272126 
" clip-path="url(#pf179150279)" style="fill: none; stroke: #0f4d92; stroke-opacity: 0.55; stroke-width: 0.8; stroke-linecap: square"/>
   </g>
   <g id="line2d_10">
    <path d="M 52.330394 174.103937 
L 78.786142 174.103937 
" clip-path="url(#pf179150279)" style="fill: none; stroke: #0f4d92; stroke-opacity: 0.55; stroke-width: 0.8; stroke-linecap: square"/>
   </g>
   <g id="line2d_11">
    <path d="M 52.330394 167.935748 
L 78.786142 167.935748 
" clip-path="url(#pf179150279)" style="fill: none; stroke: #0f4d92; stroke-opacity: 0.55; stroke-width: 0.8; stroke-linecap: square"/>
   </g>
   <g id="line2d_12">
    <path d="M 52.330394 161.767559 
L 78.786142 161.767559 
" clip-path="url(#pf179150279)" style="fill: none; stroke: #0f4d92; stroke-opacity: 0.55; stroke-width: 0.8; stroke-linecap: square"/>
   </g>
   <g id="line2d_13">
    <path d="M 58.555276 176.64378 
L 85.011024 176.64378 
" clip-path="url(#pf179150279)" style="fill: none; stroke: #0f4d92; stroke-opacity: 0.55; stroke-width: 0.8; stroke-linecap: square"/>
   </g>
   <g id="line2d_14">
    <path d="M 58.555276 170.475591 
L 85.011024 170.475591 
" clip-path="url(#pf179150279)" style="fill: none; stroke: #0f4d92; stroke-opacity: 0.55; stroke-width: 0.8; stroke-linecap: square"/>
   </g>
   <g id="line2d_15">
    <path d="M 58.555276 164.307402 
L 85.011024 164.307402 
" clip-path="url(#pf179150279)" style="fill: none; stroke: #0f4d92; stroke-opacity: 0.55; stroke-width: 0.8; stroke-linecap: square"/>
   </g>
   <g id="line2d_16">
    <path d="M 58.555276 158.139213 
L 85.011024 158.139213 
" clip-path="url(#pf179150279)" style="fill: none; stroke: #0f4d92; stroke-opacity: 0.55; stroke-width: 0.8; stroke-linecap: square"/>
   </g>
   <g id="line2d_17">
    <path d="M 293.544567 118.953071 
L 309.106772 106.253858 
" clip-path="url(#pf179150279)" style="fill: none; stroke: #0f4d92; stroke-opacity: 0.8; stroke-width: 0.8; stroke-linecap: square"/>
   </g>
   <g id="line2d_18">
    <path d="M 309.106772 106.253858 
L 327.262677 111.696378 
" clip-path="url(#pf179150279)" style="fill: none; stroke: #0f4d92; stroke-opacity: 0.8; stroke-width: 0.8; stroke-linecap: square"/>
   </g>
   <g id="line2d_19">
    <path d="M 327.262677 111.696378 
L 319.481575 129.83811 
" clip-path="url(#pf179150279)" style="fill: none; stroke: #0f4d92; stroke-opacity: 0.8; stroke-width: 0.8; stroke-linecap: square"/>
   </g>
   <g id="line2d_20">
    <path d="M 319.481575 129.83811 
L 298.731969 131.652283 
" clip-path="url(#pf179150279)" style="fill: none; stroke: #0f4d92; stroke-opacity: 0.8; stroke-width: 0.8; stroke-linecap: square"/>
   </g>
   <g id="line2d_21">
    <path d="M 298.731969 131.652283 
L 293.544567 118.953071 
" clip-path="url(#pf179150279)" style="fill: none; stroke: #0f4d92; stroke-opacity: 0.8; stroke-width: 0.8; stroke-linecap: square"/>
   </g>
   <g id="line2d_22">
    <path d="M 309.106772 106.253858 
L 319.481575 129.83811 
" clip-path="url(#pf179150279)" style="fill: none; stroke: #0f4d92; stroke-opacity: 0.8; stroke-width: 0.8; stroke-linecap: square"/>
   </g>
   <g id="line2d_23">
    <path d="M 418.560945 134.917795 
L 439.310551 134.917795 
" clip-path="url(#pf179150279)" style="fill: none; stroke: #7b8794; stroke-width: 0.6; stroke-linecap: square"/>
   </g>
   <g id="line2d_24">
    <path d="M 418.560945 134.917795 
L 418.560945 119.315906 
" clip-path="url(#pf179150279)" style="fill: none; stroke: #7b8794; stroke-width: 0.6; stroke-linecap: square"/>
   </g>
   <g id="line2d_25">
    <path d="M 53.886614 293.83937 
L 487.034646 293.83937 
" clip-path="url(#pf179150279)" style="fill: none; stroke: #c7a484; stroke-width: 1.2; stroke-linecap: square"/>
   </g>
   <g id="text_1">
    <text style="font-weight: 700; font-size: 13.5px; font-family: 'Arial', 'Helvetica', 'DejaVu Sans', sans-serif; text-anchor: start; fill: #1f2933" x="25.355906" y="27.020684" transform="rotate(-0 25.355906 27.020684)">RailRL System / Architecture</text>
   </g>
   <g id="text_2">
    <text style="font-size: 6.6px; font-family: 'Arial', 'Helvetica', 'DejaVu Sans', sans-serif; text-anchor: start; fill: #64748b" x="26.393386" y="38.660191" transform="rotate(-0 26.393386 38.660191)">Traceable railway data acquisition -&gt; leak-safe decision reconstruction -&gt; conservative offline RL -&gt; explainable route-setting support</text>
   </g>
   <g id="text_3">
    <text style="font-weight: 700; font-size: 6.1px; font-family: 'Arial', 'Helvetica', 'DejaVu Sans', sans-serif; text-anchor: middle; fill: #6656a4" x="441.385512" y="27.285801" transform="rotate(-0 441.385512 27.285801)">ESWA</text>
   </g>
   <g id="text_4">
    <text style="font-weight: 700; font-size: 6.1px; font-family: 'Arial', 'Helvetica', 'DejaVu Sans', sans-serif; text-anchor: middle; fill: #b0444c" x="485.478425" y="27.285801" transform="rotate(-0 485.478425 27.285801)">T-ITS</text>
   </g>
   <g id="text_5">
    <text style="font-weight: 700; font-size: 7.8px; font-family: 'Arial', 'Helvetica', 'DejaVu Sans', sans-serif; text-anchor: start; fill: #0f4d92" x="32.618268" y="90.815699" transform="rotate(-0 32.618268 90.815699)">1  Data Layer</text>
   </g>
   <g id="text_6">
    <text style="font-weight: 700; font-size: 7.8px; font-family: 'Arial', 'Helvetica', 'DejaVu Sans', sans-serif; text-anchor: start; fill: #27834f" x="157.115906" y="90.815699" transform="rotate(-0 157.115906 90.815699)">2  Decision Layer</text>
   </g>
   <g id="text_7">
    <text style="font-weight: 700; font-size: 7.8px; font-family: 'Arial', 'Helvetica', 'DejaVu Sans', sans-serif; text-anchor: start; fill: #6656a4" x="281.613543" y="90.815699" transform="rotate(-0 281.613543 90.815699)">3  Learning Layer</text>
   </g>
   <g id="text_8">
    <text style="font-weight: 700; font-size: 7.8px; font-family: 'Arial', 'Helvetica', 'DejaVu Sans', sans-serif; text-anchor: start; fill: #b0444c" x="406.111181" y="90.792543" transform="rotate(-0 406.111181 90.792543)">4  Evaluation + XAI</text>
   </g>
   <g id="text_9">
    <text style="font-weight: 700; font-size: 6px; font-family: 'Arial', 'Helvetica', 'DejaVu Sans', sans-serif; text-anchor: start; fill: #1f2933" x="80.861102" y="108.571403" transform="rotate(-0 80.861102 108.571403)">Operational feeds</text>
   </g>
   <g id="text_10">
    <text style="font-size: 5.35px; font-family: 'Arial', 'Helvetica', 'DejaVu Sans', sans-serif; text-anchor: start; fill: #1f2933" x="80.861102" y="118.884791" transform="rotate(-0 80.861102 118.884791)">TD events</text>
   </g>
   <g id="text_11">
    <text style="font-size: 5.35px; font-family: 'Arial', 'Helvetica', 'DejaVu Sans', sans-serif; text-anchor: start; fill: #1f2933" x="80.861102" y="130.132665" transform="rotate(-0 80.861102 130.132665)">movement records</text>
   </g>
   <g id="text_12">
    <text style="font-size: 5.35px; font-family: 'Arial', 'Helvetica', 'DejaVu Sans', sans-serif; text-anchor: start; fill: #1f2933" x="80.861102" y="141.41314" transform="rotate(-0 80.861102 141.41314)">schedule/performance</text>
   </g>
   <g id="text_13">
    <text style="font-size: 5.35px; font-family: 'Arial', 'Helvetica', 'DejaVu Sans', sans-serif; text-anchor: start; fill: #1f2933" x="80.861102" y="152.629667" transform="rotate(-0 80.861102 152.629667)">infrastructure graph</text>
   </g>
   <g id="text_14">
    <text style="font-weight: 700; font-size: 5.8px; font-family: 'Arial', 'Helvetica', 'DejaVu Sans', sans-serif; text-anchor: start; fill: #1f2933" x="87.604724" y="172.341894" transform="rotate(-0 87.604724 172.341894)">Provenance archive</text>
   </g>
   <g id="text_15">
    <text style="font-size: 5.2px; font-family: 'Arial', 'Helvetica', 'DejaVu Sans', sans-serif; text-anchor: start; fill: #64748b" x="87.604724" y="183.43058" transform="rotate(-0 87.604724 183.43058)">versioned records</text>
   </g>
   <g id="text_16">
    <text style="font-weight: 700; font-size: 5.9px; font-family: 'Arial', 'Helvetica', 'DejaVu Sans', sans-serif; text-anchor: start; fill: #1f2933" x="160.228346" y="108.544871" transform="rotate(-0 160.228346 108.544871)">Canonical decision samples</text>
   </g>
   <g id="text_17">
    <text style="font-size: 5px; font-family: 'Arial', 'Helvetica', 'DejaVu Sans', sans-serif; text-anchor: middle; fill: #1f2933" x="229.739528" y="125.325334" transform="rotate(-0 229.739528 125.325334)">wait</text>
   </g>
   <g id="text_18">
    <text style="font-size: 5px; font-family: 'Arial', 'Helvetica', 'DejaVu Sans', sans-serif; text-anchor: middle; fill: #1f2933" x="229.739528" y="132.582027" transform="rotate(-0 229.739528 132.582027)">route_i</text>
   </g>
   <g id="text_19">
    <text style="font-weight: 700; font-size: 5.4px; font-family: 'Arial', 'Helvetica', 'DejaVu Sans', sans-serif; text-anchor: middle; fill: #b7791f" x="180.459213" y="167.884191" transform="rotate(-0 180.459213 167.884191)">reward</text>
   </g>
   <g id="text_20">
    <text style="font-size: 4.8px; font-family: 'Arial', 'Helvetica', 'DejaVu Sans', sans-serif; text-anchor: middle; fill: #1f2933" x="180.459213" y="174.620268" transform="rotate(-0 180.459213 174.620268)">delay / risk</text>
   </g>
   <g id="text_21">
    <text style="font-weight: 700; font-size: 5.4px; font-family: 'Arial', 'Helvetica', 'DejaVu Sans', sans-serif; text-anchor: middle; fill: #27834f" x="227.145827" y="167.884191" transform="rotate(-0 227.145827 167.884191)">state</text>
   </g>
   <g id="text_22">
    <text style="font-size: 4.8px; font-family: 'Arial', 'Helvetica', 'DejaVu Sans', sans-serif; text-anchor: middle; fill: #1f2933" x="227.145827" y="174.619143" transform="rotate(-0 227.145827 174.619143)">leak-safe</text>
   </g>
   <g id="text_23">
    <text style="font-weight: 700; font-size: 5.4px; font-family: 'Arial', 'Helvetica', 'DejaVu Sans', sans-serif; text-anchor: start; fill: #1f2933" x="327.781417" y="113.786391" transform="rotate(-0 327.781417 113.786391)">graph encoder</text>
   </g>
   <g id="text_24">
    <text style="font-weight: 700; font-size: 5.4px; font-family: 'Arial', 'Helvetica', 'DejaVu Sans', sans-serif; text-anchor: start; fill: #1f2933" x="339.712441" y="148.29112" transform="rotate(-0 339.712441 148.29112)">event encoder</text>
   </g>
   <g id="text_25">
    <text style="font-weight: 700; font-size: 5.2px; font-family: 'Arial', 'Helvetica', 'DejaVu Sans', sans-serif; text-anchor: middle; fill: #1f2933" x="356.830866" y="132.637386" transform="rotate(-0 356.830866 132.637386)">fusion</text>
   </g>
   <g id="text_26">
    <text style="font-size: 4.8px; font-family: 'Arial', 'Helvetica', 'DejaVu Sans', sans-serif; text-anchor: middle; fill: #1f2933" x="356.830866" y="139.787017" transform="rotate(-0 356.830866 139.787017)">+ mask</text>
   </g>
   <g id="text_27">
    <text style="font-weight: 700; font-size: 5.5px; font-family: 'Arial', 'Helvetica', 'DejaVu Sans', sans-serif; text-anchor: middle; fill: #1f2933" x="330.893858" y="179.554337" transform="rotate(-0 330.893858 179.554337)">CQL per-action Q</text>
   </g>
   <g id="text_28">
    <text style="font-size: 4.8px; font-family: 'Arial', 'Helvetica', 'DejaVu Sans', sans-serif; text-anchor: middle; fill: #1f2933" x="330.893858" y="186.595311" transform="rotate(-0 330.893858 186.595311)">Q(wait), Q(route_i)</text>
   </g>
   <g id="text_29">
    <text style="font-weight: 700; font-size: 5.3px; font-family: 'Arial', 'Helvetica', 'DejaVu Sans', sans-serif; text-anchor: middle; fill: #b0444c" x="428.417008" y="112.344568" transform="rotate(-0 428.417008 112.344568)">metrics</text>
   </g>
   <g id="text_30">
    <text style="font-weight: 700; font-size: 5.3px; font-family: 'Arial', 'Helvetica', 'DejaVu Sans', sans-serif; text-anchor: middle; fill: #6656a4" x="477.178583" y="112.344568" transform="rotate(-0 477.178583 112.344568)">explanations</text>
   </g>
   <g id="text_31">
    <text style="font-weight: 700; font-size: 5.6px; font-family: 'Arial', 'Helvetica', 'DejaVu Sans', sans-serif; text-anchor: middle; fill: #0f4d92" x="453.835276" y="173.378554" transform="rotate(-0 453.835276 173.378554)">Decision-support output</text>
   </g>
   <g id="text_32">
    <text style="font-size: 5px; font-family: 'Arial', 'Helvetica', 'DejaVu Sans', sans-serif; text-anchor: middle; fill: #1f2933" x="453.835276" y="181.927539" transform="rotate(-0 453.835276 181.927539)">ranked wait/set actions</text>
   </g>
   <g id="text_33">
    <text style="font-weight: 700; font-size: 5.4px; font-family: 'Arial', 'Helvetica', 'DejaVu Sans', sans-serif; text-anchor: middle; fill: #64748b" x="141.294331" y="125.432537" transform="rotate(-0 141.294331 125.432537)">canonicalize</text>
   </g>
   <g id="text_34">
    <text style="font-weight: 700; font-size: 5.4px; font-family: 'Arial', 'Helvetica', 'DejaVu Sans', sans-serif; text-anchor: middle; fill: #64748b" x="265.791969" y="125.432537" transform="rotate(-0 265.791969 125.432537)">train</text>
   </g>
   <g id="text_35">
    <text style="font-weight: 700; font-size: 5.4px; font-family: 'Arial', 'Helvetica', 'DejaVu Sans', sans-serif; text-anchor: middle; fill: #64748b" x="390.289606" y="125.432537" transform="rotate(-0 390.289606 125.432537)">validate</text>
   </g>
   <g id="text_36">
    <text style="font-weight: 700; font-size: 7px; font-family: 'Arial', 'Helvetica', 'DejaVu Sans', sans-serif; text-anchor: start; fill: #e07025" x="35.730709" y="266.62713" transform="rotate(-0 35.730709 266.62713)">Validation and publication-evidence rail</text>
   </g>
   <g id="text_37">
    <text style="font-size: 5.4px; font-family: 'Arial', 'Helvetica', 'DejaVu Sans', sans-serif; text-anchor: start; fill: #64748b" x="35.730709" y="273.498182" transform="rotate(-0 35.730709 273.498182)">evidence must separate behaviour replication from operational-improvement claims</text>
   </g>
   <g id="text_38">
    <text style="font-weight: 700; font-size: 5.2px; font-family: 'Arial', 'Helvetica', 'DejaVu Sans', sans-serif; text-anchor: middle; fill: #1f2933" x="61.667717" y="308.249355" transform="rotate(-0 61.667717 308.249355)">temporal split</text>
   </g>
   <g id="text_39">
    <text style="font-weight: 700; font-size: 5.2px; font-family: 'Arial', 'Helvetica', 'DejaVu Sans', sans-serif; text-anchor: middle; fill: #1f2933" x="134.291339" y="308.249355" transform="rotate(-0 134.291339 308.249355)">schema tests</text>
   </g>
   <g id="text_40">
    <text style="font-weight: 700; font-size: 5.2px; font-family: 'Arial', 'Helvetica', 'DejaVu Sans', sans-serif; text-anchor: middle; fill: #1f2933" x="206.914961" y="308.249355" transform="rotate(-0 206.914961 308.249355)">leak audit</text>
   </g>
   <g id="text_41">
    <text style="font-weight: 700; font-size: 5.2px; font-family: 'Arial', 'Helvetica', 'DejaVu Sans', sans-serif; text-anchor: middle; fill: #1f2933" x="279.538583" y="308.21523" transform="rotate(-0 279.538583 308.21523)">training gates</text>
   </g>
   <g id="text_42">
    <text style="font-weight: 700; font-size: 5.2px; font-family: 'Arial', 'Helvetica', 'DejaVu Sans', sans-serif; text-anchor: middle; fill: #1f2933" x="354.755906" y="308.249355" transform="rotate(-0 354.755906 308.249355)">baselines</text>
   </g>
   <g id="text_43">
    <text style="font-weight: 700; font-size: 5.2px; font-family: 'Arial', 'Helvetica', 'DejaVu Sans', sans-serif; text-anchor: middle; fill: #1f2933" x="429.973228" y="308.249355" transform="rotate(-0 429.973228 308.249355)">counterfactuals</text>
   </g>
   <g id="text_44">
    <text style="font-weight: 700; font-size: 5.2px; font-family: 'Arial', 'Helvetica', 'DejaVu Sans', sans-serif; text-anchor: middle; fill: #1f2933" x="487.034646" y="308.246917" transform="rotate(-0 487.034646 308.246917)">paper figures</text>
   </g>
   <g id="text_45">
    <text style="font-size: 5.2px; font-family: 'Arial', 'Helvetica', 'DejaVu Sans', sans-serif; text-anchor: start; fill: #1f2933" x="65.817638" y="45.91625" transform="rotate(-0 65.817638 45.91625)">data flow</text>
   </g>
   <g id="text_46">
    <text style="font-size: 5.2px; font-family: 'Arial', 'Helvetica', 'DejaVu Sans', sans-serif; text-anchor: start; fill: #1f2933" x="65.817638" y="56.802508" transform="rotate(-0 65.817638 56.802508)">training feedback</text>
   </g>
   <g id="text_47">
    <text style="font-size: 5.2px; font-family: 'Arial', 'Helvetica', 'DejaVu Sans', sans-serif; text-anchor: start; fill: #1f2933" x="65.817638" y="67.65586" transform="rotate(-0 65.817638 67.65586)">explainability</text>
   </g>
   <g id="text_48">
    <text style="font-size: 5.8px; font-family: 'Arial', 'Helvetica', 'DejaVu Sans', sans-serif; text-anchor: start; fill: #64748b" x="25.355906" y="349.765317" transform="rotate(-0 25.355906 349.765317)">Figure 1. Reference-style system architecture of RailRL for railway route-setting decision support.</text>
   </g>
  </g>
 </g>
 <defs>
  <clipPath id="pf179150279">
   <rect x="7.2" y="7.2" width="518.740157" height="362.834646"/>
  </clipPath>
 </defs>
</svg>
